<svg xmlns="http://www.w3.org/2000/svg" width="600" viewBox="0 0 450 450" height="600" version="1.0"><defs><clipPath id="a"><path d="M86.758 142h276.75v166H86.758zm0 0"/></clipPath></defs><g clip-path="url(#a)"><path fill="#fff" d="M164.668 202.371c0 3.41.367 6.164 1.012 8.18a49.536 49.536 0 0 0 2.949 6.637c.46.726.648 1.46.648 2.109 0 .922-.554 1.84-1.754 2.762l-5.793 3.859a4.346 4.346 0 0 1-2.398.832c-.918 0-1.84-.46-2.75-1.293a28.202 28.202 0 0 1-3.309-4.32 70.316 70.316 0 0 1-2.855-5.426c-7.168 8.457-16.188 12.684-27.04 12.684-7.718 0-13.878-2.2-18.386-6.61-4.504-4.426-6.797-10.3-6.797-17.66 0-7.813 2.754-14.172 8.364-18.941 5.613-4.782 13.054-7.176 22.523-7.176 3.133 0 6.348.277 9.746.738 3.41.461 6.91 1.195 10.574 2.027v-6.718c0-6.993-1.46-11.864-4.32-14.711-2.937-2.856-7.902-4.227-14.973-4.227-3.226 0-6.547.356-9.945 1.188-3.398.828-6.715 1.843-9.93 3.132a27.05 27.05 0 0 1-3.222 1.2 5.663 5.663 0 0 1-1.465.265c-1.29 0-1.934-.922-1.934-2.847v-4.504c0-1.477.184-2.582.645-3.227a6.771 6.771 0 0 1 2.578-1.922c3.215-1.66 7.074-3.043 11.578-4.148a55.418 55.418 0 0 1 14.356-1.738c10.94 0 18.937 2.488 24.085 7.453 5.06 4.953 7.63 12.5 7.63 22.613v29.79zm-37.324 13.988c3.027 0 6.152-.554 9.469-1.66 3.304-1.105 6.253-3.12 8.73-5.875 1.477-1.75 2.582-3.687 3.133-5.898.543-2.2.922-4.875.922-7.996v-3.86a76.827 76.827 0 0 0-8.465-1.566 69.5 69.5 0 0 0-8.64-.55c-6.165 0-10.669 1.194-13.708 3.683-3.031 2.476-4.496 5.968-4.496 10.566 0 4.32 1.098 7.543 3.398 9.746 2.204 2.301 5.415 3.41 9.657 3.41zm73.844 9.93c-1.66 0-2.766-.277-3.504-.922-.739-.554-1.383-1.844-1.934-3.582l-21.602-71.09a15.95 15.95 0 0 1-.828-3.687c0-1.477.735-2.305 2.2-2.305h9.02c1.737 0 2.937.29 3.57.922.75.555 1.304 1.844 1.843 3.594l15.461 60.87 14.344-60.87c.46-1.844 1.012-3.04 1.738-3.594 1.133-.695 2.36-1 3.688-.922h7.347c1.75 0 2.95.29 3.688.922.726.555 1.383 1.844 1.738 3.594l14.527 61.61 15.91-61.61c.551-1.844 1.2-3.04 1.844-3.594a5.833 5.833 0 0 1 3.582-.922h8.559c1.465 0 2.305.75 2.305 2.305 0 .46-.106.922-.196 1.472-.144.79-.36 1.56-.644 2.305l-22.156 71.078c-.551 1.844-1.196 3.032-1.934 3.582a5.723 5.723 0 0 1-3.492.922h-7.914c-1.739 0-2.938-.273-3.684-.922-.726-.644-1.371-1.84-1.73-3.683l-14.262-59.305-14.168 59.211c-.461 1.844-1.004 3.043-1.73 3.687-.747.645-2.04.922-3.684.922zm118.148 2.477c-4.781 0-9.563-.555-14.16-1.649-4.594-1.105-8.18-2.304-10.574-3.687-1.473-.817-2.477-1.739-2.844-2.567a6.404 6.404 0 0 1-.555-2.582v-4.687c0-1.926.738-2.848 2.11-2.848.55 0 1.105.094 1.656.277.554.184 1.383.555 2.304.922a49.644 49.644 0 0 0 10.118 3.215 54.93 54.93 0 0 0 10.941 1.106c5.785 0 10.3-1.016 13.422-3.043a9.697 9.697 0 0 0 2.031-1.625 9.859 9.859 0 0 0 2.473-4.52c.207-.851.3-1.71.277-2.586a8.847 8.847 0 0 0-.594-3.469 8.924 8.924 0 0 0-1.882-2.972c-1.66-1.738-4.793-3.305-9.297-4.778l-13.328-4.148c-6.72-2.11-11.684-5.23-14.711-9.367a21.694 21.694 0 0 1-3.41-6.29 21.751 21.751 0 0 1-1.2-7.05c0-3.86.84-7.258 2.489-10.207 1.66-2.938 3.859-5.516 6.625-7.535 2.765-2.117 5.875-3.684 9.562-4.778 3.684-1.109 7.543-1.566 11.586-1.566 2.02 0 4.137.09 6.164.367 2.11.278 4.031.645 5.969 1.012 1.844.46 3.594.922 5.242 1.465 1.656.554 2.95 1.105 3.871 1.66a7.828 7.828 0 0 1 2.762 2.3c.613.923.883 1.93.82 3.032v4.32c0 1.934-.738 2.95-2.121 2.95a9.474 9.474 0 0 1-3.488-1.106 41.543 41.543 0 0 0-17.653-3.582c-5.238 0-9.386.816-12.23 2.566-2.86 1.754-4.32 4.414-4.32 8.18 0 2.582.921 4.793 2.761 6.531 1.832 1.754 5.23 3.504 10.106 5.07l13.062 4.126c6.614 2.117 11.407 5.066 14.25 8.836 2.848 3.765 4.227 8.086 4.227 12.867 0 3.949-.828 7.547-2.383 10.668-1.66 3.133-3.871 5.886-6.715 8.097-2.86 2.305-6.258 3.954-10.207 5.149-4.148 1.281-8.457 1.926-13.156 1.926zm17.383 44.695c-30.25 22.351-74.211 34.203-111.996 34.203-52.97 0-100.688-19.582-136.743-52.137-2.847-2.57-.277-6.074 3.133-4.047 38.985 22.618 87.078 36.325 136.82 36.325 33.57 0 70.434-6.993 104.376-21.336 5.054-2.305 9.375 3.308 4.41 6.992zm12.601-14.352c-3.87-4.953-25.574-2.386-35.41-1.187-2.937.367-3.398-2.211-.726-4.149 17.28-12.128 45.699-8.636 49.007-4.593 3.305 4.144-.921 32.554-17.109 46.16-2.477 2.117-4.871 1.012-3.766-1.742 3.684-9.098 11.864-29.606 8.004-34.489zm0 0"/></g></svg>