<svg xmlns="http://www.w3.org/2000/svg" width="600" viewBox="0 0 450 450" height="600" version="1.0"><defs><clipPath id="a"><path d="M123 108.613h204v232.5H123zm0 0"/></clipPath></defs><g clip-path="url(#a)"><path fill="#fff" d="m312.656 156.137-73.488-43.625a27.756 27.756 0 0 0-14.172-3.899c-4.898 0-9.785 1.301-14.18 3.907l-73.484 43.617c-8.77 5.207-14.172 14.828-14.172 25.246v87.238c0 10.406 5.403 20.04 14.18 25.246l73.488 43.617a27.742 27.742 0 0 0 14.168 3.899c4.899 0 9.79-1.301 14.172-3.899l73.488-43.617c8.766-5.207 14.18-14.828 14.18-25.246v-87.238c0-10.418-5.402-20.04-14.18-25.246zm-56.914 136.226.125 6.266c.012.758-.484 1.621-1.074 1.922l-3.715 2.133c-.594.3-1.078-.067-1.086-.825l-.07-6.16c-3.18 1.32-6.399 1.64-8.457.817-.387-.157-.55-.727-.399-1.38l1.352-5.663c.105-.446.348-.891.668-1.172.117-.106.23-.196.348-.25.214-.11.418-.137.601-.059 2.223.746 5.055.395 7.778-.98 3.464-1.758 5.78-5.285 5.742-8.797-.028-3.184-1.754-4.512-5.946-4.54-5.332.009-10.316-1.038-10.394-8.894-.07-6.469 3.297-13.199 8.62-17.457L249.77 241c-.012-.777.464-1.629 1.074-1.938l3.59-2.289c.59-.3 1.074.067 1.086.844l.058 6.332c2.649-1.058 4.957-1.34 7.04-.855.456.117.652.738.468 1.465l-1.399 5.605c-.105.43-.347.856-.628 1.125a1.488 1.488 0 0 1-.372.274.792.792 0 0 1-.55.085c-.953-.21-3.223-.707-6.782 1.098-3.734 1.89-5.042 5.14-5.011 7.547.027 2.879 1.5 3.75 6.601 3.84 6.79.117 9.73 3.082 9.797 9.922.07 6.68-3.512 13.898-9 18.308zm38.535-10.543c0 .582-.078 1.13-.562 1.41l-18.586 11.29c-.484.28-.871.039-.871-.543v-4.793c0-.582.36-.903.844-1.184l18.3-10.95c.485-.28.875-.038.875.544zm12.762-107.285-69.52 42.938c-8.671 5.07-15.062 10.754-15.062 21.21v85.669c0 6.253 2.52 10.308 6.402 11.484-1.273.223-2.562.375-3.863.375-4.07 0-8.078-1.106-11.61-3.2l-73.484-43.613c-7.187-4.27-11.648-12.23-11.648-20.777v-87.238c0-8.547 4.46-16.508 11.648-20.774l73.485-43.625a22.71 22.71 0 0 1 11.61-3.203c4.065 0 8.081 1.106 11.608 3.203l73.489 43.625c6.05 3.598 10.144 9.825 11.289 16.797-2.445-5.199-7.934-6.613-14.344-2.87zm0 0"/></g></svg>