<svg xmlns="http://www.w3.org/2000/svg" width="600" viewBox="0 0 450 450" height="600" version="1.0"><defs><clipPath id="a"><path d="M118 108.45h214V341.7H118zm0 0"/></clipPath></defs><g clip-path="url(#a)"><path fill="#fff" d="M269.598 197.766s-3.438-32.032-35.227-32.926c-31.8-.875-48.129 24.027-48.129 59.633 0 35.597 18.047 64.074 49 64.074 30.926 0 34.363-35.594 34.363-35.594l59.286 3.543s3.496 32.149-21.329 56.684c-24.785 24.515-55.261 28.527-76.496 28.36-21.27-.165-50.757.331-79.254-28.845-28.535-29.234-33.37-57.597-33.37-85.472 0-27.875 5.398-64.782 39.304-92.754 23-19.028 46.36-26.02 69.719-26.02 97.531 0 104.09 89.938 104.09 89.938zm0 0"/></g></svg>