<svg xmlns="http://www.w3.org/2000/svg" width="600" viewBox="0 0 450 450" height="600" version="1.0"><defs><clipPath id="a"><path d="M102 87.52h246v275.25H102zm0 0"/></clipPath></defs><g clip-path="url(#a)"><path fill="#fff" d="M344.078 156.258c-1.914-3.32-4.562-6.219-7.473-7.906l-101-58.313c-5.832-3.367-15.351-3.367-21.171 0L113.41 148.352c-5.82 3.359-10.574 11.605-10.574 18.332v116.629c0 3.367 1.191 7.101 3.105 10.425 1.914 3.32 4.559 6.219 7.47 7.903l101 58.316c5.82 3.356 15.35 3.356 21.171 0l101.004-58.316c2.91-1.684 5.555-4.582 7.469-7.903 1.914-3.324 3.093-7.058 3.093-10.425v-116.63c.032-3.367-1.148-7.101-3.07-10.425zM224.996 306.453c-44.906 0-81.441-36.547-81.441-81.457 0-44.906 36.543-81.453 81.453-81.453 3.558.004 7.097.242 10.625.71a81.772 81.772 0 0 1 20.52 5.52 81.748 81.748 0 0 1 26.417 17.637 80.876 80.876 0 0 1 7.032 7.996 81.38 81.38 0 0 1 5.933 8.84l-35.238 20.395a40.734 40.734 0 0 0-2.969-4.43 40.222 40.222 0 0 0-3.515-4.004 40.67 40.67 0 0 0-8.438-6.477 40.775 40.775 0 0 0-9.824-4.078 40.388 40.388 0 0 0-5.223-1.047 41.075 41.075 0 0 0-5.32-.359 40.868 40.868 0 0 0-15.59 3.113 39.576 39.576 0 0 0-3.613 1.711 40.536 40.536 0 0 0-6.637 4.438 41.94 41.94 0 0 0-2.965 2.683 41.007 41.007 0 0 0-5.066 6.176 41.637 41.637 0 0 0-2.059 3.426 40.165 40.165 0 0 0-1.707 3.617 41.051 41.051 0 0 0-1.351 3.762 40.868 40.868 0 0 0-1.762 11.824 41.27 41.27 0 0 0 .793 7.945c.262 1.309.586 2.598.972 3.875a41.15 41.15 0 0 0 5.117 10.797 40.628 40.628 0 0 0 5.067 6.172c.945.942 1.93 1.836 2.961 2.684a41.574 41.574 0 0 0 3.21 2.379 40.535 40.535 0 0 0 7.04 3.765c1.23.512 2.484.961 3.762 1.348 1.273.39 2.566.715 3.875.973a41.189 41.189 0 0 0 7.941.793 40.969 40.969 0 0 0 15.586-3.122 41.39 41.39 0 0 0 4.777-2.359 40.827 40.827 0 0 0 8.438-6.465 41.242 41.242 0 0 0 3.52-4 41.067 41.067 0 0 0 2.968-4.426l35.262 20.395a81.952 81.952 0 0 1-5.934 8.84 81.94 81.94 0 0 1-15.05 15.012 81.41 81.41 0 0 1-18.41 10.621 81.772 81.772 0 0 1-20.527 5.52c-3.528.468-7.071.702-10.63.71zm81.457-76.93h-9.05v9.051h-9.051v-9.05H279.3v-9.051h9.05v-9.051h9.051v9.05h9.051zm33.934 0h-9.051v9.051h-9.05v-9.05h-9.052v-9.051h9.051v-9.051h9.05v9.05h9.052zm0 0"/></g></svg>