<svg xmlns="http://www.w3.org/2000/svg" width="600" viewBox="0 0 450 450" height="600" version="1.0"><defs><clipPath id="a"><path d="M134 108.613h182v232.5H134zm0 0"/></clipPath></defs><g clip-path="url(#a)"><path fill="#fff" d="M216.715 108.613h38.058v176.188c-19.523 3.703-33.859 5.187-49.425 5.187-46.465 0-70.684-21.008-70.684-61.297 0-38.812 25.7-64.011 65.496-64.011 6.176 0 10.871.484 16.555 1.968zm0 88.676a37.423 37.423 0 0 0-12.852-1.98c-19.281 0-30.394 11.863-30.394 32.636 0 20.27 10.629 31.387 30.152 31.387 4.2 0 7.664-.242 13.094-.992v-61.063zm98.617-29.902v88.238c0 30.398-2.223 44.984-8.894 57.582-6.18 12.113-14.336 19.777-31.141 28.176l-35.344-16.809c16.809-7.906 24.965-14.84 30.152-25.46 5.442-10.872 7.168-23.481 7.168-56.59v-75.145h38.059zm-38.059-58.57h38.059v39.046h-38.059zm0 0"/></g></svg>