<svg xmlns="http://www.w3.org/2000/svg" width="600" viewBox="0 0 450 450" height="600" version="1.0"><defs><clipPath id="a"><path d="M83.355 123h283.5v204h-283.5zm0 0"/></clipPath></defs><g clip-path="url(#a)"><path fill="#fff" d="M248.406 214.117h25.012c.289 0 .57-.058.836-.168.27-.11.508-.27.71-.472a2.207 2.207 0 0 0 .648-1.543l.001-22.278c0-.289-.054-.57-.168-.84a2.168 2.168 0 0 0-.476-.71 2.148 2.148 0 0 0-.711-.477c-.27-.11-.551-.168-.84-.168h-25.012c-.289 0-.57.059-.836.168-.27.11-.504.27-.71.473a2.24 2.24 0 0 0-.473.71c-.11.266-.164.543-.164.833v22.289c0 1.203.98 2.183 2.183 2.183m-34.87-64.097h25.003c.29 0 .57-.055.84-.165a2.205 2.205 0 0 0 1.355-2.031V125.54a2.207 2.207 0 0 0-.648-1.543 2.117 2.117 0 0 0-.711-.473 2.13 2.13 0 0 0-.836-.168h-25.004c-.289 0-.566.06-.832.168a2.177 2.177 0 0 0-1.351 2.016v22.285c0 1.207.968 2.184 2.183 2.184m0 32.058h25.004a2.188 2.188 0 0 0 1.547-.645 2.211 2.211 0 0 0 .648-1.55v-22.273a2.207 2.207 0 0 0-.648-1.543 2.202 2.202 0 0 0-1.547-.64h-25.004c-.289 0-.566.058-.832.167a2.177 2.177 0 0 0-1.351 2.016v22.273c0 1.207.968 2.184 2.183 2.195m-34.582 0h25.024c.289 0 .566-.058.832-.171a2.218 2.218 0 0 0 1.175-1.188c.11-.266.164-.547.164-.836v-22.273c0-.29-.054-.567-.168-.836a2.14 2.14 0 0 0-.472-.707 2.202 2.202 0 0 0-1.543-.64h-25c-.29 0-.57.058-.836.167a2.177 2.177 0 0 0-1.184 1.18c-.11.27-.164.547-.164.836v22.273c0 1.207.98 2.184 2.184 2.195m-34.988 0h25.011c.293 0 .57-.054.84-.168a2.177 2.177 0 0 0 1.344-2.027v-22.273c0-.29-.055-.567-.164-.836a2.177 2.177 0 0 0-1.184-1.18 2.173 2.173 0 0 0-.836-.168h-25.011a2.202 2.202 0 0 0-2.196 2.184v22.273c0 1.207.992 2.184 2.196 2.195m69.558 32.051h25.004a2.202 2.202 0 0 0 2.195-2.183v-22.278c0-.289-.058-.57-.168-.84a2.23 2.23 0 0 0-.476-.71 2.23 2.23 0 0 0-.711-.477c-.27-.11-.55-.168-.84-.168h-25.004c-.289 0-.566.059-.832.168a2.177 2.177 0 0 0-1.351 2.016v22.289a2.18 2.18 0 0 0 2.183 2.183m-34.582 0h25.024c.289-.004.566-.058.832-.172.265-.11.5-.27.703-.472.203-.207.36-.442.472-.707.11-.27.164-.547.164-.832v-22.278a2.198 2.198 0 0 0-1.335-2.023 2.207 2.207 0 0 0-.836-.172h-25.024a2.203 2.203 0 0 0-1.54.645 2.191 2.191 0 0 0-.632 1.539v22.289c0 1.203.98 2.183 2.184 2.183m-34.988 0h25.011c.293 0 .57-.058.836-.168a2.177 2.177 0 0 0 1.184-1.183c.11-.266.164-.543.164-.832v-22.278c.004-.289-.05-.566-.16-.836a2.208 2.208 0 0 0-.469-.71 2.235 2.235 0 0 0-.707-.477 2.176 2.176 0 0 0-.836-.172h-25.023a2.188 2.188 0 0 0-1.55.645 2.23 2.23 0 0 0-.478.71c-.11.27-.168.551-.168.84v22.278c0 1.203.992 2.183 2.196 2.183m-34.465 0h25.023c.29-.004.567-.058.832-.172.266-.11.5-.27.703-.472.203-.207.36-.442.473-.707.11-.27.164-.547.164-.832v-22.278c0-.289-.05-.566-.16-.836a2.22 2.22 0 0 0-1.176-1.187 2.207 2.207 0 0 0-.836-.172h-25.023a2.203 2.203 0 0 0-1.54.645 2.191 2.191 0 0 0-.632 1.539v22.289a2.18 2.18 0 0 0 2.183 2.183m254.32-14.023c-.765-.602-7.929-6.02-23.062-6.02a71.83 71.83 0 0 0-11.922 1.028c-2.925-20.067-19.511-29.868-20.254-30.29l-4.062-2.351-2.668 3.86a54.418 54.418 0 0 0-7.223 16.882c-2.714 11.45-1.062 22.215 4.758 31.406-7.023 3.922-18.297 4.875-20.586 4.961H92.22a8.76 8.76 0 0 0-1.723.168 9.322 9.322 0 0 0-1.656.504 8.99 8.99 0 0 0-1.531.817 8.759 8.759 0 0 0-2.438 2.434 8.848 8.848 0 0 0-.82 1.527 8.456 8.456 0 0 0-.508 1.656 8.48 8.48 0 0 0-.176 1.722c-.11 8.172.52 16.29 1.895 24.348a133.625 133.625 0 0 0 6.273 23.598c6.434 16.855 15.992 29.273 28.445 36.875 13.93 8.535 36.594 13.422 62.266 13.422a185.816 185.816 0 0 0 34.586-3.141c15.961-2.934 31.004-8.398 45.125-16.395a123.968 123.968 0 0 0 30.805-25.214c14.781-16.735 23.586-35.375 30.136-51.934h2.61c16.195 0 26.144-6.48 31.633-11.91a34.536 34.536 0 0 0 8.343-12.348l1.16-3.398zm0 0"/></g></svg>