<svg xmlns="http://www.w3.org/2000/svg" width="600" viewBox="0 0 450 450" height="600" version="1.0"><defs><clipPath id="a"><path d="M140 108.613h170v232.5H140zm0 0"/></clipPath></defs><g clip-path="url(#a)"><path fill="#fff" d="m146.34 260.61 22.937-147.528a5.139 5.139 0 0 1 .496-1.562c.247-.497.563-.942.95-1.336a5.29 5.29 0 0 1 1.316-.977 5.22 5.22 0 0 1 1.555-.523 5.137 5.137 0 0 1 1.64-.02 5.226 5.226 0 0 1 1.563.484 5.22 5.22 0 0 1 2.324 2.258l24.664 46.274zm162.883 35.808-21.825-135.781a5.328 5.328 0 0 0-.414-1.383 5.241 5.241 0 0 0-.78-1.215 5.147 5.147 0 0 0-1.079-.957 5.122 5.122 0 0 0-1.3-.625 5.147 5.147 0 0 0-1.423-.246c-.484-.02-.96.031-1.433.148a5.237 5.237 0 0 0-2.484 1.418L140.772 296.43l76.196 42.933a15.438 15.438 0 0 0 3.719 1.504c1.304.344 2.632.512 3.98.512 1.348 0 2.676-.168 3.98-.512 1.305-.34 2.543-.84 3.72-1.504zM247.305 177.93l-17.653-33.77a5.173 5.173 0 0 0-.828-1.164 5.31 5.31 0 0 0-1.105-.894 5.231 5.231 0 0 0-2.723-.758 5.224 5.224 0 0 0-2.719.758c-.41.25-.78.546-1.109.894a5.282 5.282 0 0 0-.824 1.164l-77.496 138.875zm0 0"/></g></svg>