<svg xmlns="http://www.w3.org/2000/svg" width="600" viewBox="0 0 450 450" height="600" version="1.0"><defs><clipPath id="a"><path d="M15.96 21h417.75v408H15.96zm0 0"/></clipPath></defs><g clip-path="url(#a)"><path fill="#fff" d="M225 21.133c-115.496 0-209.04 93.597-209.04 209.039 0 92.379 59.892 170.715 142.93 198.328 10.454 1.969 14.286-4.496 14.286-10.05 0-4.966-.176-18.118-.262-35.54-58.148 12.613-70.41-28.047-70.41-28.047-9.512-24.125-23.258-30.57-23.258-30.57-18.933-12.961 1.465-12.7 1.465-12.7 20.988 1.466 32.016 21.532 32.016 21.532 18.64 31.965 48.933 22.734 60.882 17.387 1.883-13.52 7.266-22.735 13.243-27.961-46.426-5.227-95.22-23.203-95.22-103.301 0-22.82 8.102-41.457 21.513-56.09-2.352-5.281-9.407-26.531 1.832-55.328 0 0 17.503-5.61 57.484 21.426 16.723-4.649 34.492-6.95 52.258-7.055 17.77.106 35.539 2.406 52.261 7.055 39.72-27.035 57.223-21.426 57.223-21.426 11.238 28.797 4.184 50.047 2.094 55.328 13.324 14.633 21.426 33.27 21.426 56.09 0 80.305-48.864 97.988-95.375 103.125 7.316 6.273 14.109 19.094 14.109 38.676 0 27.972-.262 50.445-.262 57.238 0 5.488 3.66 12.02 14.371 9.93C374.2 400.8 434.04 322.41 434.04 230.172c0-115.442-93.598-209.04-209.039-209.04"/></g></svg>