<svg xmlns="http://www.w3.org/2000/svg" width="600" viewBox="0 0 450 450" height="600" version="1.0"><defs><clipPath id="a"><path d="M85.914 173h278.25v104H85.914zm0 0"/></clipPath></defs><g clip-path="url(#a)"><path fill="#fff" d="M106.906 204.496c-.547 0-.672-.266-.406-.684l2.852-3.652c.265-.402.937-.672 1.484-.672h48.355c.532 0 .672.407.403.813l-2.305 3.512c-.266.417-.95.812-1.355.812zm-20.445 12.461c-.547 0-.684-.27-.406-.672l2.84-3.664c.265-.406.949-.672 1.496-.672h61.754c.542 0 .808.406.671.813l-1.078 3.242c-.14.547-.672.812-1.218.812zm32.777 12.457c-.547 0-.683-.402-.406-.809l1.89-3.386c.266-.406.81-.809 1.356-.809h27.086c.543 0 .813.403.813.95l-.27 3.245c0 .543-.543.95-.95.95zm140.578-27.351c-8.53 2.167-14.359 3.789-22.75 5.957-2.043.535-2.168.671-3.941-1.356-2.016-2.309-3.512-3.789-6.352-5.144-8.543-4.2-16.804-2.98-24.515 2.027-9.211 5.957-13.953 14.766-13.813 25.73.125 10.836 7.578 19.774 18.278 21.266 9.214 1.219 16.922-2.027 23.027-8.922 1.219-1.508 2.297-3.129 3.652-5.031h-26.136c-2.84 0-3.524-1.762-2.575-4.055 1.762-4.2 5.008-11.246 6.91-14.77a3.58 3.58 0 0 1 1.368-1.59 3.542 3.542 0 0 1 2.015-.573h49.293c-.265 3.66-.265 7.312-.808 10.972a57.495 57.495 0 0 1-3.875 13.977 57.433 57.433 0 0 1-7.23 12.566c-9.747 12.867-22.485 20.863-38.594 23.02-13.274 1.761-25.606-.813-36.43-8.926-10.024-7.59-15.715-17.617-17.2-30.078-1.761-14.766 2.575-28.035 11.508-39.684 9.622-12.586 22.348-20.586 37.926-23.414 12.727-2.316 24.918-.808 35.883 6.621 7.184 4.75 12.32 11.242 15.715 19.102.812 1.215.27 1.898-1.356 2.316m44.832 74.887c-12.332-.281-23.574-3.805-33.054-11.93a42.298 42.298 0 0 1-5.38-5.43 42.548 42.548 0 0 1-7.433-13.28 42.569 42.569 0 0 1-1.816-7.426c-2.434-15.297 1.762-28.848 10.976-40.903 9.887-13.004 21.801-19.77 37.926-22.597 13.813-2.434 26.817-1.102 38.594 6.894 10.7 7.3 17.34 17.2 19.101 30.191 2.293 18.293-2.98 33.184-15.578 45.922-8.937 9.075-19.91 14.754-32.511 17.328-3.649.696-7.301.813-10.825 1.23zm32.223-54.707c-.129-1.774-.129-3.129-.394-4.488-2.434-13.41-14.766-20.977-27.633-18.008-12.598 2.836-20.723 10.836-23.703 23.562-2.434 10.57 2.714 21.266 12.46 25.614 7.454 3.246 14.895 2.828 22.079-.813 10.699-5.562 16.515-14.23 17.203-25.879zm0 0"/></g></svg>