<svg xmlns="http://www.w3.org/2000/svg" width="600" viewBox="0 0 450 450" height="600" version="1.0"><defs><clipPath id="a"><path d="M192 108.715h63V236h-63zm0 0"/></clipPath><clipPath id="b"><path d="M171 315h139v26.215H171zm0 0"/></clipPath></defs><g clip-path="url(#a)"><path fill="#fff" d="M245.895 109.395c-.41.5-.454 1.726-.274 4.406.82 9.86-2.633 21.215-8.312 27.3-1.496 1.544-5.496 4.86-8.903 7.36-14.851 10.809-17.535 12.945-22.304 17.668-5.086 5.133-8.446 9.539-11.036 14.672-5.406 10.765-2.953 23.215 7.36 37.25 2.86 3.86 15.304 16.351 16.941 16.941 1.453.547 2.453-.09 2.453-1.543 0-.547-1.136-3.543-2.543-6.633-5.359-11.808-9.265-26.117-9.265-33.886 0-6.676 2.18-9.403 18.258-22.801 14.035-11.719 20.03-18.172 23.484-25.3 4.496-9.27 4.27-20.532-.637-30.845-2.316-4.953-3.86-6.27-5.222-4.59zm0 0"/></g><path fill="#fff" d="M262.02 159.27c-19.122 8.359-32.704 18.351-37.293 27.39-1.543 3.047-1.77 4-1.954 7.133-.273 6.77 1.543 14.035 4.954 19.625.906 1.543 3.132 4.676 4.906 6.992 4.086 5.27 4.539 6.723 3.543 11.492-.363 1.953-1.227 4.864-1.863 6.496-1.5 3.727-1.41 4.954.5 5.133 1.18.137 1.906-.406 5.269-3.543 8.492-7.949 12.262-15.988 10.856-23.21-.91-4.45-2.09-7.133-5.59-12.72-1.77-2.859-3.633-6.085-4.133-7.175-1.043-2.453-1.133-5.817-.137-8.633 1.774-4.902 8.86-12.355 21.758-22.89 3.91-3.227 7.133-6.133 7.133-6.454 0-.77-1.227-2.043-1.953-2.043-.317 0-2.996 1.09-5.996 2.407zM287.91 231.633c-3.906.906-5.45 1.363-8.539 2.543-3.723 1.406-4.77 2.453-3.996 3.953.363.633 1.18.906 3.316 1.133 5.043.547 7.766 1.226 11.172 2.816 5.133 2.453 7.223 6.086 6.043 10.586-1.316 4.95-9.719 14.172-19.215 21.074-4.77 3.453-5.406 4.27-4.496 5.727.543.86 2 .77 6.133-.41 11.582-3.227 21.668-8.586 27.027-14.356 4.997-5.312 6.676-10.855 5.27-17.262-1.59-7.312-4.863-12.035-10.129-14.535-2.183-1.043-3.273-1.27-7.133-1.363-2.5-.09-4.953-.043-5.453.094zm0 0"/><path fill="#fff" d="M181.848 235.04c-12.309 1.136-21.442 4.179-23.668 7.812-.996 1.726-1.133 4.859-.227 6.585 2.59 4.954 11.356 8.266 27.074 10.176 6.27.774 34.657.774 41.79 0 15.488-1.68 27.3-4.726 37.476-9.629 7.129-3.453 9.082-5.316 7.266-6.816-.774-.633-2.043-.543-9.313.863-20.621 3.864-65.363 4.864-82.078 1.817-1.59-.27-2.863-.727-2.863-.953 0-.907 10.718-4.997 15.898-5.997 4.36-.906 5.45-1.726 4.543-3.496-.453-.773-1-.863-6.27-.816-3.18.043-7.496.226-9.628.453zM183.438 262.43c-7.313 2.36-10.223 5.043-9.766 9.129.363 3.632 7.36 7.27 17.941 9.312 16.352 3.18 34.567 2.227 62.004-3.226 10.582-2.09 11.582-2.454 11.582-4.043 0-1.133-1.453-2.407-7.539-6.586l-2.953-2.043-6.586 1.363c-15.535 3.223-31.297 4.45-45.469 3.633-7.496-.453-12.855-1.137-15.898-2.09-1.32-.406-.91-1.453 1-2.68 1.816-1.18 2.27-2.316 1.27-3.316-.727-.727-1.864-.637-5.587.547zM187.754 286.594c-6.406 1.726-9.133 6.043-6.86 10.765 2.817 5.817 13.489 9.086 33.567 10.266 15.125.91 30.39-1.227 43.062-5.95 3.543-1.316 4.043-1.636 4.18-2.679.18-1.453-.183-1.726-7.312-6.043l-5.77-3.543-5.59.953c-3.043.5-7.676 1.274-10.308 1.727-8.27 1.41-25.032.91-34.387-1.043-4.27-.863-4.36-.91-3.727-2.09.274-.5.364-1.41.23-2-.273-.953-.546-1.09-2.452-1.043-1.184 0-3.274.316-4.633.68zm0 0"/><path fill="#fff" d="M163.723 302.945c-19.305 1.91-27.164 6.27-24.391 13.582 3.043 7.95 18.621 11.723 53.645 12.993 43.062 1.5 82.351-3.18 99.703-11.856 5.543-2.816 7.632-5.86 6.632-9.719-.5-1.91-2.906-4.363-4.359-4.363-1.5 0-1.953.863-1.547 2.953.364 1.953-.543 2.59-6.176 4.317-11.445 3.543-32.207 6.539-53.328 7.765-11.672.684-37.02.274-47.058-.726-14.219-1.364-26.39-3.586-29.797-5.36l-1.227-.636 1.09-.727c1.543-1.043 9.856-3.68 14.672-4.633 3.316-.68 4.086-1.043 4.45-1.863 1.183-2.586-.907-2.86-12.31-1.727zm0 0"/><g clip-path="url(#b)"><path fill="#fff" d="M304.266 317.89c-7.043 5.36-20.989 10.493-33.844 12.493-12.625 1.953-44.695 2.726-76.902 1.863-21.665-.59-21.895-.59-21.575 1.5.227 1.453 1.68 1.906 10.809 3.406 31.48 5.133 61.867 5.45 91.758.907 7.312-1.09 9.039-1.454 14.082-2.954 5.77-1.77 11.445-4.859 15.035-8.265 4.586-4.27 6.723-9.356 4.543-10.54-1.184-.59-.82-.726-3.906 1.59zm0 0"/></g></svg>