<svg xmlns="http://www.w3.org/2000/svg" width="600" viewBox="0 0 450 450" height="600" version="1.0"><defs><clipPath id="a"><path d="M108.71 108.71h232.5v232.5h-232.5zm0 0"/></clipPath></defs><g clip-path="url(#a)"><path fill="#fff" d="M108.71 108.71h232.571v232.571h-232.57zm213.52 177.103c-1.695-10.61-8.605-19.524-29.101-27.84-7.133-3.344-15.059-5.668-17.414-11.047-.88-3.2-1.016-4.942-.445-6.832 1.453-6.258 8.867-8.14 14.683-6.395 3.777 1.16 7.266 4.07 9.457 8.719 10.02-6.55 10.02-6.55 17.004-10.898-2.613-4.07-3.914-5.825-5.676-7.56-6.105-6.831-14.234-10.32-27.465-10.019l-6.832.86c-6.55 1.601-12.789 5.09-16.57 9.738-11.047 12.512-7.86 34.316 5.516 43.328 13.226 9.883 32.57 12.055 35.039 21.367 2.328 11.336-8.43 14.973-19.051 13.664-7.86-1.746-12.21-5.68-17.008-12.945l-17.73 10.184c2.035 4.652 4.36 6.675 7.847 10.746 16.86 17.015 59.016 16.144 66.582-9.73.282-.872 2.329-6.833.72-15.989zm-87.05-70.208h-21.782c0 18.782-.09 37.446-.09 56.254 0 11.938.614 22.899-1.335 26.27-3.2 6.68-11.434 5.824-15.176 4.652-3.836-1.898-5.785-4.515-8.043-8.285-.61-1.016-1.066-1.898-1.23-1.898L169.84 303.5c2.953 6.102 7.265 11.355 12.828 14.7 8.285 4.94 19.422 6.538 31.078 3.925 7.586-2.191 14.129-6.7 17.55-13.676 4.942-9.012 3.895-20.058 3.845-32.422.117-19.906 0-39.82 0-59.879zm0 0"/></g></svg>