<svg xmlns="http://www.w3.org/2000/svg" width="600" viewBox="0 0 450 450" height="600" version="1.0"><defs><clipPath id="a"><path d="M32.7 32.7h384.75v384.75H32.7zm0 0"/></clipPath></defs><g clip-path="url(#a)"><path fill="#fff" d="M360.36 360.441h-56.954V271.2c0-21.281-.43-48.668-29.676-48.668-29.695 0-34.23 23.156-34.23 47.098v90.812h-56.953v-183.52h54.71v25.017h.735c7.645-14.422 26.235-29.645 54.004-29.645 57.707 0 68.379 37.977 68.379 87.414v100.734zM118.222 151.813c-18.332 0-33.059-14.84-33.059-33.094 0-18.235 14.742-33.059 33.059-33.059 18.27 0 33.078 14.824 33.078 33.059 0 18.254-14.824 33.094-33.078 33.094zM146.78 360.44H89.668v-183.52h57.113zM388.851 32.7H61.079C45.391 32.7 32.7 45.102 32.7 60.406V389.59c0 15.32 12.692 27.707 28.38 27.707h327.726c15.672 0 28.492-12.387 28.492-27.707V60.406c0-15.304-12.82-27.707-28.492-27.707zm0 0"/></g></svg>