<svg xmlns="http://www.w3.org/2000/svg" width="800" viewBox="0 0 600 450" height="600" version="1.0"><path fill="#fff" d="M338.5 225a169.457 169.457 0 0 1-.77 16.648 167.81 167.81 0 0 1-2.394 16.497 166.247 166.247 0 0 1-1.8 8.14 168.523 168.523 0 0 1-4.786 15.965 167.17 167.17 0 0 1-2.977 7.785 170.103 170.103 0 0 1-11.156 22.36 171.155 171.155 0 0 1-9.215 13.89 162.944 162.944 0 0 1-5.105 6.59 167.216 167.216 0 0 1-5.422 6.332 167.648 167.648 0 0 1-5.727 6.059 167.855 167.855 0 0 1-12.304 11.238 169.64 169.64 0 0 1-20.375 14.469 172.034 172.034 0 0 1-7.239 4.136 165.722 165.722 0 0 1-7.43 3.778 171.917 171.917 0 0 1-7.609 3.41 167.222 167.222 0 0 1-7.765 3.031c-2.613.95-5.246 1.832-7.906 2.649-2.657.816-5.329 1.57-8.024 2.257a174.63 174.63 0 0 1-8.125 1.86c-2.726.554-5.46 1.039-8.207 1.46-2.75.419-5.504.77-8.27 1.055-2.765.286-5.535.5-8.312.649-2.773.148-5.55.23-8.332.242a169.218 169.218 0 0 1-8.332-.242 168.903 168.903 0 0 1-8.313-.649c-2.765-.285-5.52-.636-8.27-1.054-2.745-.422-5.48-.907-8.206-1.461a174.63 174.63 0 0 1-8.125-1.86 171.986 171.986 0 0 1-8.024-2.257c-2.66-.82-5.293-1.7-7.906-2.649a167.222 167.222 0 0 1-7.765-3.031 171.917 171.917 0 0 1-7.61-3.41 165.722 165.722 0 0 1-7.43-3.778c-2.445-1.32-4.859-2.699-7.238-4.136a166.976 166.976 0 0 1-7.023-4.489 168.32 168.32 0 0 1-13.352-9.98 167.855 167.855 0 0 1-12.305-11.238 167.648 167.648 0 0 1-5.726-6.059 167.216 167.216 0 0 1-5.422-6.332 162.944 162.944 0 0 1-5.105-6.59 171.155 171.155 0 0 1-9.215-13.89 170.103 170.103 0 0 1-11.156-22.36 167.17 167.17 0 0 1-2.977-7.785 168.523 168.523 0 0 1-4.785-15.965 171.84 171.84 0 0 1-3.203-16.36 167.81 167.81 0 0 1-.992-8.277A169.08 169.08 0 0 1 0 225a169.457 169.457 0 0 1 .77-16.648 167.81 167.81 0 0 1 2.394-16.497 166.247 166.247 0 0 1 1.8-8.14A168.523 168.523 0 0 1 9.75 167.75a167.17 167.17 0 0 1 2.977-7.785 170.103 170.103 0 0 1 11.156-22.36 171.155 171.155 0 0 1 9.215-13.89 162.944 162.944 0 0 1 5.105-6.59 167.216 167.216 0 0 1 5.422-6.332 167.648 167.648 0 0 1 5.727-6.059 167.855 167.855 0 0 1 6.015-5.773 174.573 174.573 0 0 1 6.29-5.469 173.436 173.436 0 0 1 6.554-5.152 168.32 168.32 0 0 1 6.797-4.824 166.976 166.976 0 0 1 7.023-4.489 172.034 172.034 0 0 1 7.239-4.136 165.722 165.722 0 0 1 7.43-3.778c2.51-1.199 5.046-2.336 7.609-3.41a167.222 167.222 0 0 1 7.765-3.031c2.614-.95 5.246-1.832 7.906-2.649 2.657-.816 5.329-1.57 8.024-2.257a174.63 174.63 0 0 1 8.125-1.86c2.726-.554 5.46-1.039 8.207-1.46 2.75-.419 5.504-.77 8.27-1.055 2.765-.286 5.535-.5 8.312-.649 2.773-.148 5.55-.23 8.332-.242 2.781.012 5.559.094 8.332.242 2.777.149 5.547.363 8.313.649 2.765.285 5.52.636 8.27 1.054 2.745.422 5.48.907 8.206 1.461a174.63 174.63 0 0 1 8.125 1.86c2.695.687 5.367 1.441 8.024 2.257 2.66.817 5.292 1.7 7.906 2.649 2.613.945 5.203 1.957 7.765 3.031a171.917 171.917 0 0 1 7.61 3.41 165.722 165.722 0 0 1 7.43 3.778c2.445 1.32 4.859 2.699 7.238 4.136a166.976 166.976 0 0 1 7.023 4.489 168.32 168.32 0 0 1 6.797 4.824 173.436 173.436 0 0 1 6.555 5.152 174.573 174.573 0 0 1 6.289 5.469c2.055 1.875 4.058 3.8 6.015 5.773a167.648 167.648 0 0 1 5.727 6.059 167.216 167.216 0 0 1 5.422 6.332 162.944 162.944 0 0 1 5.105 6.59 171.155 171.155 0 0 1 9.215 13.89 170.103 170.103 0 0 1 11.156 22.36 167.17 167.17 0 0 1 2.977 7.785 168.523 168.523 0 0 1 4.785 15.965 171.84 171.84 0 0 1 3.203 16.36c.399 2.75.73 5.507.992 8.277A169.08 169.08 0 0 1 338.5 225zm185.5 0c0 88.5-37.75 160.5-84.5 160.5s-84.75-72-84.75-160.5 38-160.5 84.75-160.5S524 136.5 524 225m76 0c0 79.25-13.25 143.75-29.75 143.75S540.5 304.25 540.5 225s13.25-143.75 29.75-143.75S600 145.75 600 225zm0 0"/></svg>