<svg xmlns="http://www.w3.org/2000/svg" width="600" viewBox="0 0 450 450" height="600" version="1.0"><defs><clipPath id="a"><path d="M172 109.203h106v231.75H172zm0 0"/></clipPath></defs><g clip-path="url(#a)"><path fill="#fff" d="M275.105 201.402c-12.195-53.843-41.027-71.539-44.125-78.304-2.703-3.801-5.113-9.203-7.093-13.895-.348 4.777-.532 6.61-5.047 11.426-6.977 5.46-42.824 35.527-45.738 96.687-2.72 57.047 41.203 91.043 47.168 95.375l.675.48c1.243 9.188 2.301 18.392 3.184 27.618h4.64a275.34 275.34 0 0 1 4.922-29.621c4.024-2.86 5.829-4.469 8.204-6.688a109.672 109.672 0 0 0 15.058-17.18 108.559 108.559 0 0 0 6.102-9.675 109.266 109.266 0 0 0 11.844-32.07c.75-3.746 1.296-7.52 1.648-11.32.355-3.801.508-7.61.46-11.43.098-7.852-.995-16.035-1.902-21.403zm-51.488 79.078s0-80.003 2.653-79.992c2.054 0 4.73 103.2 4.73 103.2-3.676-.434-7.383-16.985-7.383-23.208zm0 0"/></g></svg>