<svg xmlns="http://www.w3.org/2000/svg" width="600" viewBox="0 0 450 450" height="600" version="1.0"><defs><clipPath id="a"><path d="M80.492 126h288.75v198H80.492zm0 0"/></clipPath></defs><g clip-path="url(#a)"><path fill="#fff" d="M278.043 146.738c-1.387 0-2.324.168-3.3.395v.156h.167c.652 1.254 1.762 2.168 2.578 3.29.653 1.288 1.203 2.577 1.856 3.855l.168-.184c1.133-.793 1.687-2.07 1.687-4.008-.484-.566-.554-1.133-.965-1.687-.48-.805-1.515-1.203-2.168-1.844zm-128.066 158.88h-11.165a612.156 612.156 0 0 0-3.25-53.102h-.097l-16.977 53.101h-8.492l-16.86-53.101h-.116a876.069 876.069 0 0 0-2.352 53.101H80.492c.664-23.672 2.313-45.879 4.938-66.59H99.28l16.074 48.938h.098l16.219-48.938h13.187c2.914 24.266 4.625 46.48 5.153 66.59zm48.37-49.13c-4.55 24.625-10.546 42.543-17.964 53.707-5.805 8.621-12.164 12.922-19.063 12.922-1.843 0-4.093-.555-6.816-1.664v-5.95c1.324.208 2.89.317 4.648.317 3.227 0 5.817-.906 7.793-2.675 2.371-2.168 3.551-4.598 3.551-7.286 0-1.867-.926-5.66-2.77-11.367l-12.21-38.004h10.957l8.754 28.418c1.976 6.453 2.808 10.957 2.468 13.524 4.817-12.813 8.168-26.817 10.055-41.942zm148.419 49.13h-31.668v-66.59h10.656v58.402h21.012zm-39.98 1.628-12.235-6.023c1.086-.914 2.133-1.903 3.07-3.008 5.215-6.094 7.805-15.152 7.805-27.133 0-22.035-8.645-33.066-25.95-33.066-8.476 0-15.101 2.793-19.87 8.394-5.176 6.117-7.778 15.121-7.778 27.031 0 11.707 2.29 20.305 6.91 25.77 4.215 4.937 10.563 7.406 19.063 7.406 3.18 0 6.094-.394 8.73-1.18l15.957 9.297 4.336-7.488zm-39.641-14.957c-2.711-4.336-4.06-11.32-4.06-20.906 0-16.774 5.106-25.168 15.294-25.168 5.336 0 9.273 2.012 11.766 6.023 2.699 4.36 4.046 11.27 4.046 20.746 0 16.907-5.105 25.387-15.293 25.387-5.359 0-9.273-2.012-11.777-6.023zm-19.965-5.117c0 5.66-2.07 10.308-6.215 13.918-4.14 3.613-9.668 5.422-16.664 5.422-6.54 0-12.813-2.075-18.946-6.203l2.856-5.73c5.273 2.648 10.031 3.948 14.332 3.948 3.996 0 7.14-.879 9.426-2.652a9.031 9.031 0 0 0 3.398-5.281c.156-.7.227-1.406.215-2.121 0-3.977-2.77-7.348-7.8-10.176-4.677-2.567-14.009-7.914-14.009-7.914-5.082-3.695-7.609-7.656-7.609-14.172 0-5.418 1.89-9.754 5.66-13.066 3.793-3.348 8.668-4.997 14.692-4.997 6.164 0 11.8 1.637 16.859 4.938l-2.566 5.73a32.528 32.528 0 0 0-12.813-2.77c-3.406 0-6.043.821-7.875 2.481a8.162 8.162 0 0 0-2.195 2.825 8.207 8.207 0 0 0-.793 3.484c0 3.953 2.82 7.348 8.023 10.238 4.73 2.59 14.293 8.067 14.293 8.067 5.215 3.675 7.801 7.586 7.801 14.066zm112.976-70.473c-6.441-.168-11.437.485-15.617 2.266-1.203.48-3.133.48-3.3 2.012.663.636.757 1.683 1.324 2.574.964 1.617 2.625 3.77 4.167 4.902 1.688 1.324 3.372 2.602 5.141 3.734 3.133 1.926 6.684 3.07 9.754 5.008 1.746 1.133 3.531 2.567 5.3 3.77.88.601 1.446 1.687 2.575 2.07v-.238c-.55-.723-.723-1.77-1.262-2.578-.808-.809-1.613-1.528-2.41-2.324a38.678 38.678 0 0 0-8.367-8.13c-2.578-1.757-8.215-4.214-9.274-7.163l-.156-.168c1.758-.157 3.852-.797 5.54-1.278 2.734-.722 5.238-.566 8.066-1.277 1.277-.324 2.566-.723 3.855-1.133v-.719c-1.445-1.445-2.527-3.41-4.023-4.757a106.408 106.408 0 0 0-13.293-9.91c-2.528-1.614-5.735-2.65-8.395-4.024-.96-.48-2.578-.723-3.129-1.527-1.445-1.762-2.289-4.098-3.312-6.192a211.5 211.5 0 0 1-6.586-14.004c-1.445-3.156-2.324-6.297-4.094-9.187-8.312-13.692-17.305-21.988-31.14-30.106-2.977-1.687-6.54-2.41-10.31-3.3-2.01-.098-4.022-.243-6.022-.325-1.325-.566-2.602-2.097-3.731-2.832-4.578-2.886-16.426-9.148-19.797-.867-2.168 5.227 3.215 10.383 5.082 13.031 1.383 1.844 3.13 3.95 4.094 6.02.566 1.398.723 2.832 1.289 4.289 1.273 3.539 2.492 7.488 4.176 10.8.879 1.688 1.844 3.458 2.976 4.973.649.88 1.758 1.29 2.012 2.735-1.133 1.636-1.207 4.023-1.855 6.02-2.891 9.116-1.758 20.386 2.336 27.097 1.289 1.996 4.359 6.43 8.464 4.73 3.614-1.445 2.817-6.02 3.852-10.054.242-.965.086-1.602.578-2.25v.18c1.133 2.261 2.266 4.417 3.3 6.683 2.481 3.95 6.817 8.043 10.442 10.777 1.926 1.446 3.457 3.95 5.864 4.84v-.242h-.18c-.52-.695-1.203-1.035-1.856-1.602a41.532 41.532 0 0 1-4.214-4.816 105.547 105.547 0 0 1-8.997-14.668c-1.324-2.527-2.43-5.25-3.492-7.742-.48-.961-.48-2.406-1.285-2.89-1.207 1.757-2.976 3.288-3.855 5.456-1.528 3.469-1.688 7.73-2.262 12.16-.328.086-.172 0-.328.172-2.574-.629-3.453-3.3-4.418-5.539-2.41-5.722-2.805-14.91-.723-21.496.567-1.687 2.973-7.008 2.012-8.62-.508-1.532-2.098-2.411-2.977-3.65a30.243 30.243 0 0 1-2.89-5.144c-1.926-4.504-2.887-9.488-4.985-13.992-.96-2.082-2.648-4.262-4.02-6.176-1.53-2.168-3.218-3.7-4.433-6.262-.398-.879-.96-2.336-.324-3.3.168-.653.504-.903 1.133-1.086 1.058-.868 4.031.265 5.082.75 2.972 1.203 5.476 2.336 7.969 4.02 1.132.796 2.347 2.323 3.793 2.722h1.687c2.578.566 5.48.168 7.887.879 4.277 1.37 8.129 3.37 11.586 5.539a71.422 71.422 0 0 1 14.37 12.105 71.388 71.388 0 0 1 10.735 15.422c.965 1.856 1.387 3.555 2.266 5.48 1.683 3.973 3.77 7.985 5.48 11.825 1.684 3.793 3.309 7.66 5.73 10.8 1.204 1.688 6.044 2.567 8.212 3.446 1.601.723 4.097 1.387 5.539 2.266 2.77 1.683 5.468 3.609 8.07 5.464 1.324.915 5.336 2.926 5.574 4.551zm0 0"/></g></svg>