<svg xmlns="http://www.w3.org/2000/svg" width="600" viewBox="0 0 450 450" height="600" version="1.0"><defs><clipPath id="a"><path d="M121 108.613h208v232.5H121zm0 0"/></clipPath></defs><g clip-path="url(#a)"><path fill="#fff" d="M224.977 341.383c-3.114 0-6.215-.817-8.942-2.395l-28.476-16.847c-4.246-2.375-2.172-3.223-.774-3.715 5.672-1.969 6.817-2.426 12.88-5.86.628-.359 1.464-.222 2.112.164l21.883 12.989c.793.437 1.91.437 2.637 0l85.3-49.23c.798-.458 1.301-1.368 1.301-2.31v-98.44c0-.962-.515-1.864-1.332-2.348l-85.257-49.192a2.692 2.692 0 0 0-2.63 0l-85.242 49.2a2.756 2.756 0 0 0-1.347 2.34v98.44c0 .942.523 1.833 1.347 2.278l23.364 13.504c12.676 6.34 20.445-1.125 20.445-8.633v-97.191c0-1.38 1.106-2.453 2.48-2.453h10.817c1.348 0 2.473 1.086 2.473 2.453v97.191c0 16.922-9.215 26.621-25.254 26.621-4.93 0-8.817 0-19.653-5.344l-22.382-12.867c-5.528-3.191-8.942-9.168-8.942-15.558v-98.442c0-6.39 3.422-12.367 8.942-15.547l85.3-49.289c5.403-3.054 12.567-3.054 17.922 0l85.29 49.29c5.53 3.19 8.964 9.156 8.964 15.546v98.442c0 6.39-3.433 12.347-8.965 15.558l-85.289 49.25a17.83 17.83 0 0 1-8.972 2.395zm68.87-97.055c0-18.43-12.452-23.336-38.667-26.797-26.489-3.504-29.184-5.316-29.184-11.515 0-5.121 2.281-11.957 21.899-11.957 17.527 0 23.988 3.773 26.644 15.586.23 1.113 1.25 1.93 2.395 1.93H288c.688 0 1.34-.302 1.805-.786.465-.523.718-1.191.648-1.902-1.715-20.348-15.234-29.832-42.558-29.832-24.325 0-38.833 10.261-38.833 27.476 0 18.668 14.434 23.828 37.778 26.137 27.93 2.734 30.094 6.82 30.094 12.309 0 9.535-7.653 13.597-25.625 13.597-22.567 0-27.532-5.664-29.204-16.894a2.47 2.47 0 0 0-2.453-2.086h-11.027a2.444 2.444 0 0 0-2.46 2.453c0 14.375 7.815 31.504 45.144 31.504 27.043.008 42.539-10.633 42.539-29.223zm0 0"/></g></svg>