<svg xmlns="http://www.w3.org/2000/svg" width="600" viewBox="0 0 450 450" height="600" version="1.0"><defs><clipPath id="a"><path d="M87 83.05h276V367H87zm0 0"/></clipPath></defs><g clip-path="url(#a)"><path fill="#fff" d="M361.734 257.207a6.12 6.12 0 0 0-.664-1.41c-1.644-3.113-5.64-4.043-11.918-2.746-19.554 4.035-27.129 1.554-29.875-.223 15.875-24.23 28.922-53.492 35.973-80.789 3.21-12.43 9.441-41.684 1.445-55.973a18.394 18.394 0 0 0-1.785-2.78c-15.25-19.49-37.637-29.942-64.734-30.231-17.68-.188-32.774 4.093-36.86 5.672-2.027-.38-4.062-.7-6.105-.965a94.802 94.802 0 0 0-15.512-1.512c-13.984-.219-26.07 3.125-36.074 9.941-10.145-3.796-56.648-19.457-85.43.934-16.074 11.387-23.496 31.742-22.058 60.5.484 9.676 5.996 39.438 14.695 67.941 5.441 17.82 11.106 31.961 16.957 42.371 6.543 11.762 13.32 18.848 20.277 21.168 5.293 1.762 13.403 1.704 21.98-8.609 9.477-11.398 18.813-21.598 23.005-26.105 5.148 2.785 10.722 4.285 16.441 4.46 0 .016.004.032.004.047a129.657 129.657 0 0 0-2.922 3.614c-4.008 5.09-4.844 6.148-17.746 8.804-3.672.758-13.418 2.766-13.562 9.598-.028 1.45.39 2.734 1.09 3.867 2.683 5.004 10.898 7.211 12.003 7.489 15.786 3.945 29.625 1.09 39.883-8.028-.203 26.39.914 52.254 4.086 60.18 2.613 6.539 9.012 22.527 29.207 22.527 2.965 0 6.227-.344 9.813-1.113 21.078-4.52 30.234-13.836 33.773-34.375 1.777-10.3 4.75-34.012 6.371-48.516.203-.828.426-1.425.676-1.61.008-.007.824-.558 5.055.364.172.04.347.063.523.082l3.004.262.176.012c10.015.453 22.61-1.688 29.941-5.094 7.617-3.535 21.36-12.215 18.867-19.754zm-250.636-33.668c-8.797-28.816-13.934-57.789-14.344-65.91-1.281-25.688 4.937-43.566 18.484-53.145 21.723-15.363 57.25-6.398 72.25-1.539-.039.04-.078.07-.117.11-23.937 24.18-23.371 65.488-23.312 68.011 0 .973.078 2.356.191 4.25.414 6.95 1.18 19.88-.867 34.524-1.903 13.61 2.289 26.926 11.508 36.543.953.992 1.949 1.93 2.976 2.808-4.101 4.391-13.015 14.106-22.504 25.52-6.715 8.074-11.351 6.527-12.879 6.02-4.632-1.547-9.617-6.946-14.644-15.641-5.672-9.926-11.399-24.035-16.742-41.55zm71.058 60.176c-2.023-.508-3.87-1.34-5.113-2.098 1.05-.465 2.809-1.066 5.719-1.668 15.18-3.12 17.523-5.328 22.644-11.828 1.172-1.492 2.5-3.18 4.344-5.238.398-.45.691-.961.871-1.535 2.02-1.79 3.223-1.301 5.168-.493 1.848.762 3.64 3.075 4.371 5.622.344 1.203.735 3.484-.535 5.257-10.695 14.973-26.277 14.778-37.469 11.98zm24.77-47.176-.621 1.668c-1.575 4.219-3.035 8.14-3.946 11.863-7.894-.023-15.574-3.394-21.414-9.492-7.43-7.746-10.8-18.527-9.257-29.574 2.164-15.473 1.363-28.945.933-36.184-.059-1.011-.11-1.898-.14-2.601 3.496-3.098 19.703-11.781 31.261-9.137 5.274 1.211 8.488 4.8 9.824 10.98 6.914 31.981.914 45.313-3.906 56.024-.992 2.207-1.933 4.293-2.734 6.453zm87.105 54.09c-.199 2.09-.422 4.445-.73 7.047l-1.727 5.183c-.137.414-.21.84-.215 1.278-.07 5.613-.64 7.675-1.359 10.281-.75 2.71-1.602 5.785-2.125 12.508-1.3 16.73-10.387 26.34-28.594 30.242-17.926 3.848-21.105-5.875-23.906-14.45-.29-.902-.59-1.792-.91-2.683-2.547-6.93-2.262-16.7-1.863-30.223.195-6.64-.293-22.492-3.907-31.3.055-3.469.125-6.992.227-10.551a4.16 4.16 0 0 0-.184-1.332 17.657 17.657 0 0 0-.515-2.461c-1.453-5.066-4.985-9.305-9.227-11.063-1.684-.695-4.773-1.976-8.488-1.027.793-3.266 2.164-6.95 3.652-10.941l.63-1.68c.702-1.89 1.581-3.852 2.519-5.926 5.043-11.21 11.953-26.562 4.453-61.242-2.809-12.992-12.188-19.332-26.407-17.86-8.527.883-16.324 4.321-20.214 6.294-.782.394-1.551.804-2.317 1.23 1.086-13.086 5.188-37.547 20.531-53.02a47.378 47.378 0 0 1 3.59-3.265 4.082 4.082 0 0 0 1.711-.762c8.899-6.75 20.043-10.062 33.145-9.847 4.84.078 9.484.402 13.89.957 22.938 4.191 38.371 17.113 47.743 28.187 9.632 11.383 14.847 22.848 16.93 29.031-15.653-1.593-26.301 1.5-31.7 9.215-11.742 16.785 6.422 49.36 15.152 65.016 1.602 2.87 2.985 5.351 3.418 6.406 2.844 6.887 6.524 11.488 9.211 14.848.825 1.027 1.625 2.027 2.23 2.898-4.741 1.363-13.257 4.524-12.48 20.309-.144 1.847-.5 5.285-.988 9.637-.543 2.457-.828 5.445-1.176 9.066zm10.535-19.176c-.48-9.84 3.184-10.867 7.059-11.953a39.37 39.37 0 0 0 1.598-.48c.5.44 1.027.847 1.586 1.214 6.746 4.457 18.718 4.985 35.566 1.59-2.383 2.094-6.137 4.727-11.273 7.113-4.848 2.25-12.965 3.938-20.672 4.301-8.512.399-12.844-.957-13.864-1.785zm6.735-109.672c-.067 4.149-.64 7.918-1.246 11.848-.649 4.23-1.325 8.605-1.496 13.914-.168 5.168.48 10.539 1.105 15.734 1.262 10.493 2.555 21.297-2.457 31.957a42.014 42.014 0 0 1-2.219-4.562c-.62-1.508-1.972-3.934-3.843-7.29-7.282-13.062-24.34-43.644-15.606-56.124 4.488-6.418 15.86-6.696 25.762-5.477zm2.703 82.965c-.332-.426-.672-.848-1.008-1.27l-.422-.523c8.59-14.191 6.91-28.226 5.418-40.676-.617-5.109-1.195-9.933-1.047-14.46.153-4.805.785-8.926 1.399-12.907.758-4.91 1.523-9.988 1.312-15.976.16-.63.223-1.371.14-2.25-.538-5.743-7.097-22.926-20.456-38.48-7.188-8.368-17.621-17.712-31.809-24.126 6.211-1.262 14.586-2.406 23.95-2.2 24.265.54 43.464 9.622 57.066 27 .289.376.55.77.789 1.184 8.55 16.036-3.27 74.231-35.332 124.684zM209.71 172.398c-.293 2.122-3.652 4.997-7.348 4.997-.32 0-.636-.02-.957-.067-2.215-.305-4.453-1.703-5.984-3.73-.54-.72-1.422-2.106-1.246-3.368.066-.472.308-1.164 1.094-1.757 1.398-1.059 4.16-1.45 7.21-1.028 3.743.524 7.602 2.293 7.23 4.953zm93.812-4.867c.13.938-.582 2.38-1.812 3.668-.809.852-2.508 2.32-4.824 2.64-.293.044-.59.063-.887.063-3.473 0-6.406-2.773-6.633-4.394-.285-2.09 3.125-3.676 6.637-4.164 3.512-.492 7.23.101 7.52 2.187zm0 0"/></g></svg>