<svg xmlns="http://www.w3.org/2000/svg" width="600" viewBox="0 0 450 450" height="600" version="1.0"><defs><clipPath id="a"><path d="M108.836 108.836h232.5v232.5h-232.5zm0 0"/></clipPath></defs><g clip-path="url(#a)"><path fill="#fff" d="m246.777 110.578 8.715 1.938 7.067 2.515 5.71 2.906 4.356 3.098 3.293 3.29 2.418 3.292 1.55 3.195.966 2.903.39 2.515.192 1.938-.098 1.258v51.691l-.484 6.102-1.258 5.32-2.031 4.453-2.516 3.68-2.906 3-3.196 2.422-3.386 1.84-3.387 1.355-3.195.965-2.907.68-2.515.386-2.032.196H193.73l-6.68.484-5.71 1.352-4.84 2.132-3.969 2.614-3.195 3.097-2.613 3.387-1.934 3.484-1.453 3.582-.969 3.387-.676 3.098-.386 2.617-.196 2.031v29.621h-21.586l-2.035-.289-2.707-.68-3.097-1.16-3.391-1.742-3.484-2.52-3.485-3.484-3.386-4.453-3.098-5.71-2.711-7.067-2.035-8.516-1.356-10.168-.48-11.906.578-11.809 1.55-10.066 2.321-8.422 3.098-6.875 3.488-5.515 3.871-4.262 4.066-3.192 4.063-2.324 3.875-1.55 3.484-.965 3.098-.485 2.324-.097h1.547l.582.097h78.988v-8.035h-56.53l-.099-26.621-.19-3.582.483-3.29 1.063-3.003 1.644-2.711 2.422-2.516 3-2.226 3.68-1.934 4.258-1.742 4.937-1.453 5.614-1.164 6.195-.965 6.875-.582 7.453-.387 8.133-.195 12.293.484zm-60.984 19.168-2.227 3.195-.773 3.97.773 3.968 2.227 3.289 3.195 2.133 3.969.87 3.969-.87 3.195-2.133 2.227-3.29.773-3.968-.773-3.969-2.227-3.195-3.195-2.129-3.969-.87-3.969.87zm126.715 38.238 2.71.578 3.098 1.165 3.387 1.742 3.485 2.613 3.484 3.387 3.39 4.55 3.098 5.711 2.711 7.067 2.031 8.52 1.356 10.066.484 11.906-.582 11.906-1.547 10.067-2.324 8.328-3.098 6.87-3.484 5.52-3.871 4.356-4.066 3.195-4.067 2.32-3.871 1.551-3.484.871-3.098.485-2.324.191-1.551-.094h-79.57v7.938h56.53l.099 26.715.195 3.484-.484 3.293-1.067 3-1.644 2.809-2.422 2.418-3 2.324-3.676 1.937-4.262 1.645-4.937 1.453-5.614 1.258-6.195.871-6.871.676-7.457.387-8.129.097-12.293-.387-10.36-1.355-8.71-1.934-7.067-2.421-5.714-2.903-4.356-3.195-3.289-3.293-2.422-3.29-1.547-3.195-.968-2.906-.387-2.418-.196-1.937.098-1.258v-51.691l.485-6.196 1.257-5.226 2.032-4.453 2.52-3.68 2.901-3.098 3.196-2.324 3.387-1.934 3.39-1.355 3.192-.969 2.906-.582 2.515-.387 2.036-.191 1.257-.098h56.532l6.68-.484 5.71-1.355 4.84-2.032 3.969-2.71 3.195-3.098 2.613-3.39 1.938-3.485 1.45-3.485.968-3.386.68-3.098.386-2.711.192-2.031v-29.625h20.234l1.356.097zm-62.633 137.942-2.223 3.195-.777 3.969.777 3.969 2.223 3.191 3.195 2.227 3.97.777 3.968-.777 3.195-2.227 2.227-3.191.773-3.97-.773-3.968-2.227-3.195-3.195-2.227-3.969-.773-3.969.773zm0 0"/></g></svg>