<svg xmlns="http://www.w3.org/2000/svg" width="600" viewBox="0 0 450 450" height="600" version="1.0"><defs><clipPath id="a"><path d="M97.328 111h255v228h-255zm0 0"/></clipPath></defs><g clip-path="url(#a)"><path fill="#fff" d="M248.723 225.04c0 .776-.04 1.554-.114 2.331a24.37 24.37 0 0 1-.343 2.309 24.117 24.117 0 0 1-1.352 4.46c-.3.72-.633 1.422-1 2.11a23.61 23.61 0 0 1-4.156 5.605c-.551.551-1.125 1.075-1.73 1.57a23.611 23.611 0 0 1-3.875 2.59c-.688.368-1.391.7-2.11 1a24.04 24.04 0 0 1-4.461 1.356 24 24 0 0 1-2.309.344c-.773.074-1.55.113-2.328.113a24.4 24.4 0 0 1-2.332-.113 23.923 23.923 0 0 1-6.773-1.695c-.719-.301-1.422-.633-2.11-1a23.611 23.611 0 0 1-5.609-4.16 23.384 23.384 0 0 1-1.566-1.727 23.611 23.611 0 0 1-2.59-3.879 23.63 23.63 0 0 1-2.695-8.883 23.188 23.188 0 0 1-.114-2.332c0-.777.035-1.555.114-2.332.074-.773.19-1.543.34-2.309.152-.761.343-1.515.57-2.261a23.595 23.595 0 0 1 4.371-8.184 23.525 23.525 0 0 1 1.566-1.73c.551-.551 1.13-1.075 1.73-1.57a23.96 23.96 0 0 1 5.984-3.59 24.117 24.117 0 0 1 4.462-1.352 23.17 23.17 0 0 1 2.309-.344c.777-.078 1.55-.117 2.332-.117.777 0 1.554.04 2.332.113a24.37 24.37 0 0 1 2.308.344c.766.152 1.52.34 2.266.566a22.95 22.95 0 0 1 2.195.79c.723.296 1.426.628 2.113.996.688.367 1.352.77 2 1.199.649.433 1.274.898 1.875 1.39.602.497 1.18 1.02 1.73 1.57.552.552 1.075 1.126 1.567 1.731.496.602.961 1.227 1.39 1.875a22.985 22.985 0 0 1 2.2 4.113c.3.72.563 1.45.79 2.196.226.746.413 1.5.566 2.265.152.766.265 1.536.343 2.309.075.777.114 1.555.114 2.332zm28.172-113.731c-14.32 0-33.055 10.21-52.004 27.894-18.938-17.586-37.684-27.683-51.993-27.683-4.363 0-8.332.988-11.77 2.957-14.628 8.437-17.905 34.726-10.35 67.718-32.387 10-53.45 25.993-53.45 42.844 0 16.918 21.172 32.95 53.652 42.875-7.492 33.121-4.148 59.453 10.512 67.879 3.403 1.988 7.34 2.926 11.723 2.926 14.312 0 33.058-10.215 52.004-27.918 18.937 17.597 37.683 27.695 51.996 27.695 4.36 0 8.328-.957 11.765-2.926 14.618-8.425 17.907-34.715 10.352-67.718 32.27-9.914 53.336-25.938 53.336-42.813 0-16.914-21.172-32.95-53.656-42.898 7.492-33.086 4.152-59.438-10.512-67.875-3.383-1.957-7.316-2.95-11.617-2.957zm-.055 11.593v.067c2.394 0 4.32.465 5.937 1.351 7.086 4.063 10.16 19.52 7.766 39.407-.574 4.894-1.508 10.054-2.656 15.32-10.215-2.512-21.344-4.438-33.059-5.684-7.02-9.625-14.308-18.37-21.648-26.031 16.937-15.746 32.84-24.387 43.672-24.418zm-103.942.215c10.766 0 26.747 8.594 43.727 24.258-7.3 7.66-14.578 16.352-21.492 25.98-11.778 1.243-22.918 3.168-33.121 5.723a159.073 159.073 0 0 1-2.7-15.11c-2.449-19.87.575-35.32 7.594-39.437 2.024-.957 4.258-1.351 5.992-1.406zm51.938 32.45c4.844 4.976 9.684 10.554 14.469 16.64-4.68-.215-9.47-.363-14.309-.363-4.894 0-9.734.105-14.469.363a202.034 202.034 0 0 1 14.309-16.652zm.16 27.937c7.875 0 15.715.363 23.43.988a282.755 282.755 0 0 1 12.586 19.79 267.65 267.65 0 0 1 10.828 20.702 289.316 289.316 0 0 1-10.777 20.75c-4.043 7.02-8.223 13.703-12.555 19.895-7.742.668-15.594 1.043-23.512 1.043-7.871 0-15.715-.375-23.426-.992a281.717 281.717 0 0 1-12.586-19.79 266.992 266.992 0 0 1-10.832-20.702c3.223-6.989 6.875-13.97 10.778-20.79 4.043-7.02 8.222-13.68 12.554-19.87a267.561 267.561 0 0 1 23.512-1.044zm-38.672 2.703c-2.554 4.012-5.11 8.117-7.492 12.34a278.542 278.542 0 0 0-6.754 12.492 219.493 219.493 0 0 1-7.191-20.715 258.08 258.08 0 0 1 21.437-4.105zm77.238 0c7.395 1.094 14.524 2.445 21.344 4.117-1.914 6.723-4.308 13.64-7.023 20.567-2.125-4.153-4.36-8.332-6.809-12.493-2.394-4.171-4.945-8.234-7.5-12.191zm32.59 7.18a161.39 161.39 0 0 1 14.63 5.3c18.425 7.872 30.343 18.172 30.343 26.34-.055 8.172-11.973 18.512-30.398 26.332-4.47 1.918-9.364 3.641-14.414 5.246-2.981-10.19-6.875-20.808-11.704-31.703 4.786-10.82 8.618-21.386 11.543-31.535zm-142.511.043c2.957 10.215 6.863 20.82 11.703 31.707-4.79 10.82-8.64 21.383-11.555 31.531-5.148-1.594-10.043-3.383-14.574-5.316-18.43-7.844-30.344-18.153-30.344-26.325 0-8.168 11.914-18.53 30.344-26.34 4.469-1.917 9.36-3.64 14.426-5.257zm124.242 45.535a222.017 222.017 0 0 1 7.191 20.726c-6.808 1.672-14 3.086-21.445 4.149 2.55-3.988 5.105-8.106 7.5-12.32 2.394-4.149 4.629-8.383 6.766-12.555zm-105.805.215c2.129 4.168 4.363 8.328 6.809 12.5a340.695 340.695 0 0 0 7.5 12.16c-7.395-1.086-14.524-2.445-21.34-4.106 1.914-6.703 4.316-13.64 7.02-20.566zm115.902 31.777c1.192 5.246 2.13 10.3 2.704 15.14 2.445 19.876-.575 35.321-7.598 39.45-1.563.957-3.594 1.363-5.988 1.363-10.77 0-26.746-8.586-43.727-24.258 7.297-7.66 14.574-16.343 21.488-25.96 11.778-1.255 22.918-3.192 33.121-5.743zm-125.859.106c10.211 2.492 21.34 4.417 33.055 5.66 7.02 9.629 14.308 18.375 21.648 26.023-16.969 15.781-32.894 24.418-43.726 24.418-2.34-.05-4.317-.531-5.883-1.402-7.086-4.043-10.16-19.512-7.766-39.399.574-4.894 1.512-10.043 2.66-15.3zm48.512 6.812c4.683.21 9.469.36 14.312.36 4.89 0 9.735-.106 14.47-.36a203.936 203.936 0 0 1-14.313 16.648c-4.84-5-9.68-10.562-14.47-16.648zm0 0"/></g></svg>