<svg xmlns="http://www.w3.org/2000/svg" width="600" viewBox="0 0 450 450" height="600" version="1.0"><defs><clipPath id="a"><path d="M93.441 221h263.25v117H93.441zm0 0"/></clipPath><clipPath id="b"><path d="M93.441 200h263.25v111H93.441zm0 0"/></clipPath><clipPath id="c"><path d="M93.441 178h263.25v117H93.441zm0 0"/></clipPath><clipPath id="d"><path d="M93.441 157h263.25v111H93.441zm0 0"/></clipPath><clipPath id="e"><path d="M93.441 133h263.25v117H93.441zm0 0"/></clipPath><clipPath id="f"><path d="M93.441 112h263.25v112H93.441zm0 0"/></clipPath></defs><g clip-path="url(#a)"><path fill="#c8c8c8" d="M346.242 285.574c-14.043 7.32-86.781 37.227-102.265 45.301-15.485 8.07-24.09 7.992-36.32 2.145-12.235-5.848-89.641-37.114-103.583-43.778-6.969-3.332-10.633-6.144-10.633-8.797v-26.597s100.77-21.938 117.04-27.774c16.269-5.836 21.914-6.047 35.757-.976 13.844 5.074 96.63 20.007 110.313 25.02l-.008 26.218c0 2.629-3.156 5.512-10.3 9.238"/></g><g clip-path="url(#b)"><path fill="#fff" d="M346.234 259.137c-14.039 7.316-86.773 37.222-102.261 45.297-15.485 8.074-24.086 7.996-36.317 2.148-12.234-5.844-89.636-37.117-103.582-43.777-13.941-6.664-14.234-11.254-.535-16.618 13.695-5.363 90.672-35.566 106.941-41.402 16.27-5.832 21.915-6.047 35.758-.972 13.844 5.07 86.145 33.847 99.828 38.859 13.684 5.016 14.211 9.148.168 16.465"/></g><g clip-path="url(#c)"><path fill="#c8c8c8" d="M346.242 242.543c-14.043 7.32-86.781 37.227-102.265 45.3-15.485 8.071-24.09 7.993-36.32 2.145-12.235-5.843-89.641-37.113-103.583-43.777-6.969-3.332-10.633-6.14-10.633-8.797v-26.598s100.77-21.937 117.04-27.773c16.269-5.836 21.914-6.047 35.757-.977 13.848 5.075 96.63 20.004 110.313 25.02l-.008 26.219c0 2.629-3.156 5.511-10.3 9.238"/></g><g clip-path="url(#d)"><path fill="#fff" d="M346.234 216.105c-14.039 7.317-86.773 37.223-102.261 45.297-15.485 8.075-24.086 7.996-36.317 2.149-12.234-5.848-89.636-37.117-103.582-43.778-13.941-6.664-14.234-11.253-.535-16.617 13.695-5.363 90.672-35.566 106.941-41.402 16.27-5.836 21.915-6.047 35.758-.973 13.844 5.07 86.145 33.848 99.828 38.86 13.684 5.015 14.211 9.148.168 16.464"/></g><g clip-path="url(#e)"><path fill="#c8c8c8" d="M346.242 197.914c-14.043 7.32-86.781 37.227-102.265 45.305-15.485 8.07-24.09 7.992-36.32 2.144-12.235-5.843-89.641-37.117-103.583-43.777-6.969-3.336-10.633-6.145-10.633-8.797v-26.598s100.77-21.937 117.04-27.773c16.269-5.836 21.914-6.047 35.757-.977 13.848 5.075 96.63 20.004 110.313 25.02l-.008 26.219c0 2.625-3.156 5.511-10.3 9.234"/></g><g clip-path="url(#f)"><path fill="#fff" d="M346.234 171.477c-14.039 7.32-86.773 37.226-102.261 45.3-15.485 8.07-24.086 7.993-36.317 2.149-12.234-5.852-89.636-37.117-103.578-43.781-13.945-6.665-14.234-11.25-.539-16.618 13.695-5.359 90.672-35.558 106.941-41.398 16.27-5.836 21.915-6.047 35.758-.973 13.844 5.07 86.145 33.848 99.828 38.86 13.684 5.011 14.211 9.144.168 16.46"/></g><path fill="#070707" d="m257.145 145.605-22.622 2.348-5.062 12.188-8.18-13.598-26.12-2.348 19.491-7.03-5.847-10.79 18.246 7.137 17.203-5.63-4.649 11.157 17.54 6.566m-29.036 59.118-42.214-17.512 60.492-9.285-18.278 26.797m-58.53-52.344c17.858 0 32.335 5.613 32.335 12.531 0 6.926-14.476 12.535-32.336 12.535-17.855 0-32.332-5.613-32.332-12.535 0-6.918 14.477-12.531 32.332-12.531M283.879 148.938l35.805 14.148-35.774 14.133-.031-28.281"/><path fill="#070707" d="m244.27 164.605 39.609-15.667.031 28.28-3.883 1.52-35.757-14.133"/></svg>