<svg xmlns="http://www.w3.org/2000/svg" width="600" viewBox="0 0 450 450" height="600" version="1.0"><path fill="#fff" d="M296.863 171.762c.004-.801-.031-1.606-.101-2.407-.07-.8-.176-1.597-.317-2.386a26.597 26.597 0 0 0-1.281-4.645 27.52 27.52 0 0 0-.945-2.215 26.984 26.984 0 0 0-1.149-2.117c-.41-.691-.855-1.36-1.332-2.008a25.861 25.861 0 0 0-1.508-1.882 26.916 26.916 0 0 0-3.492-3.313 27.467 27.467 0 0 0-1.957-1.402 25.83 25.83 0 0 0-2.078-1.223 25.696 25.696 0 0 0-2.176-1.031 25.73 25.73 0 0 0-2.265-.828 27.177 27.177 0 0 0-4.703-1.031 27.392 27.392 0 0 0-2.403-.192c-.8-.027-1.605-.016-2.41.027-.8.047-1.601.13-2.394.246a26.505 26.505 0 0 0-9.078 3.09 26.324 26.324 0 0 0-3.977 2.72 26.875 26.875 0 0 0-3.418 3.386 27.028 27.028 0 0 0-2.754 3.95 27.091 27.091 0 0 0-1.996 4.382 26.146 26.146 0 0 0-.691 2.308c-.2.778-.36 1.567-.485 2.36-.125.793-.21 1.594-.266 2.394a27.361 27.361 0 0 0 .121 4.813 26.596 26.596 0 0 0 1.797 6.984c.305.742.641 1.473 1.008 2.188.371.715.774 1.41 1.207 2.086.434.68.895 1.336 1.387 1.968.492.637 1.012 1.25 1.563 1.836.546.59 1.12 1.153 1.718 1.688a26.691 26.691 0 0 0 3.863 2.879c.684.418 1.387.804 2.11 1.16.719.36 1.457.68 2.207.969a43.659 43.659 0 0 1-.79 3.824 44.284 44.284 0 0 1-1.116 3.742c-.43 1.23-.91 2.441-1.446 3.629a44.732 44.732 0 0 1-6.152 9.93 43.805 43.805 0 0 1-2.61 2.906c-.91.93-1.859 1.82-2.85 2.668a44.552 44.552 0 0 1-3.075 2.406 45.16 45.16 0 0 1-3.277 2.125 44.585 44.585 0 0 1-7.043 3.348c-1.223.453-2.461.851-3.72 1.195a42.204 42.204 0 0 1-3.804.867 44.822 44.822 0 0 1-7.77.715 43.64 43.64 0 0 0-26.617 8.871v-90.32a26.578 26.578 0 0 0 10.348-6.68c.715-.75 1.387-1.539 2.012-2.363a26.527 26.527 0 0 0 4.953-11.277 26.348 26.348 0 0 0 .394-6.188 26.355 26.355 0 0 0-.347-3.086 26.822 26.822 0 0 0-1.75-5.95 27.528 27.528 0 0 0-1.387-2.78 26.454 26.454 0 0 0-3.687-4.985 27.037 27.037 0 0 0-2.25-2.136 26.754 26.754 0 0 0-5.176-3.418 26.695 26.695 0 0 0-2.852-1.23 25.5 25.5 0 0 0-2.972-.895 26.47 26.47 0 0 0-6.156-.723 26.537 26.537 0 0 0-6.16.723 25.5 25.5 0 0 0-2.973.894c-.977.356-1.926.766-2.852 1.23a26.7 26.7 0 0 0-7.426 5.555c-.71.758-1.375 1.551-1.988 2.387a26.49 26.49 0 0 0-4.133 8.3 26.779 26.779 0 0 0-1.05 6.114 27.455 27.455 0 0 0 .015 3.106 26.708 26.708 0 0 0 3.605 11.777 27.255 27.255 0 0 0 1.727 2.582 27.576 27.576 0 0 0 2.012 2.363 27.107 27.107 0 0 0 2.277 2.113c.8.66 1.637 1.27 2.508 1.833a26.27 26.27 0 0 0 2.703 1.53c.93.458 1.883.86 2.86 1.204V297.57a27.006 27.006 0 0 0-5.563 2.735 26.781 26.781 0 0 0-4.785 3.949 26.43 26.43 0 0 0-2.012 2.363 26.294 26.294 0 0 0-3.137 5.348 26.545 26.545 0 0 0-1.863 15.203 26.519 26.519 0 0 0 1.754 5.945c.406.957.867 1.883 1.383 2.782a27.02 27.02 0 0 0 1.699 2.601 25.7 25.7 0 0 0 1.988 2.383 26.7 26.7 0 0 0 7.426 5.555 25.95 25.95 0 0 0 2.852 1.234c.972.355 1.964.652 2.972.894a26.933 26.933 0 0 0 6.16.723 26.933 26.933 0 0 0 6.156-.723c1.008-.242 2-.539 2.973-.894a25.95 25.95 0 0 0 2.852-1.234 26.754 26.754 0 0 0 5.176-3.418 26.408 26.408 0 0 0 2.25-2.137c.71-.754 1.375-1.55 1.992-2.383a26.983 26.983 0 0 0 3.082-5.383c.406-.953.754-1.925 1.047-2.922.297-.992.527-2.003.703-3.023a26.45 26.45 0 0 0-.047-9.273 26.545 26.545 0 0 0-1.816-5.93 26.294 26.294 0 0 0-3.137-5.348 26.43 26.43 0 0 0-4.29-4.476c-.8-.66-1.632-1.274-2.503-1.836a26.656 26.656 0 0 0-2.703-1.528 27.418 27.418 0 0 0-2.864-1.207v-19.34a26.463 26.463 0 0 1 .512-5.19 26.374 26.374 0 0 1 1.516-4.996 26.502 26.502 0 0 1 2.457-4.603 26.99 26.99 0 0 1 3.312-4.03 26.99 26.99 0 0 1 4.031-3.313c.727-.485 1.473-.93 2.243-1.34a26.536 26.536 0 0 1 9.937-3.016 26.463 26.463 0 0 1 2.61-.129 60.785 60.785 0 0 0 5.656-.218 61.607 61.607 0 0 0 11.137-1.973 61.87 61.87 0 0 0 10.597-3.961 61.694 61.694 0 0 0 9.7-5.816 63 63 0 0 0 4.414-3.543 62.407 62.407 0 0 0 7.77-8.223 62.33 62.33 0 0 0 6.148-9.492 61.845 61.845 0 0 0 4.324-10.453 61.648 61.648 0 0 0 2.36-11.063 26.646 26.646 0 0 0 7.187-3.867 26.236 26.236 0 0 0 3.062-2.715 26.171 26.171 0 0 0 2.613-3.148 26.618 26.618 0 0 0 4.879-15.379zm-115.336-53.23c.582 0 1.157.054 1.73.167a8.99 8.99 0 0 1 3.195 1.324 8.9 8.9 0 0 1 2.45 2.45 8.881 8.881 0 0 1-1.102 11.203c-.413.41-.863.781-1.347 1.101a8.893 8.893 0 0 1-3.195 1.328 8.898 8.898 0 0 1-1.73.168 8.84 8.84 0 0 1-1.731-.168 8.843 8.843 0 0 1-3.2-1.328 8.658 8.658 0 0 1-1.343-1.101 8.776 8.776 0 0 1-1.926-2.879 8.881 8.881 0 0 1 .82-8.324 8.682 8.682 0 0 1 1.106-1.344c.41-.414.86-.781 1.344-1.106a9.14 9.14 0 0 1 1.53-.816 8.893 8.893 0 0 1 1.665-.508 8.908 8.908 0 0 1 1.734-.168zm0 212.933c-.586 0-1.16-.059-1.73-.172a8.832 8.832 0 0 1-5.649-3.773 8.883 8.883 0 0 1-.82-1.532 8.881 8.881 0 0 1 4.8-11.593 8.881 8.881 0 0 1 8.325.82c.484.324.934.691 1.348 1.101.41.414.777.864 1.101 1.348.325.484.598.996.82 1.531a8.881 8.881 0 0 1-.82 8.325 9.116 9.116 0 0 1-1.101 1.347c-.414.41-.863.778-1.348 1.102a8.742 8.742 0 0 1-3.195 1.324 8.903 8.903 0 0 1-1.73.172zm88.723-150.828a8.912 8.912 0 0 1-3.398-.676 8.883 8.883 0 0 1-3.98-3.27 8.883 8.883 0 0 1-.821-1.53 8.881 8.881 0 0 1 4.8-11.595 8.881 8.881 0 0 1 8.325.82c.484.325.933.692 1.347 1.102.41.414.778.864 1.102 1.348a8.742 8.742 0 0 1 1.324 3.195c.113.574.172 1.149.172 1.73a8.912 8.912 0 0 1-.676 3.4 8.883 8.883 0 0 1-.82 1.53 9.116 9.116 0 0 1-1.102 1.348c-.414.41-.863.777-1.347 1.102a8.742 8.742 0 0 1-3.196 1.324 8.903 8.903 0 0 1-1.73.172zm0 0"/></svg>