<svg xmlns="http://www.w3.org/2000/svg" width="600" viewBox="0 0 450 450" height="600" version="1.0"><defs><clipPath id="a"><path d="M112.965 113h224.25v224h-224.25zm0 0"/></clipPath></defs><g clip-path="url(#a)"><path fill="#fff" d="M301.14 113.742c28.317 4.899 36.344 24.254 35.747 44.531l.14-.289-12.742 167-165.668 11.352h.153c-13.754-.578-44.403-1.836-45.805-44.691l15.36-28.008 26.316 61.488 4.695 10.941 26.187-85.367-.277.067.149-.282 86.402 27.598-13.031-50.703-9.243-36.41 82.344-5.313-5.742-4.761-59.117-48.192 34.16-19.055zM112.966 291.18zm47.894-130.852c33.246-32.984 76.153-52.476 92.633-35.851 16.45 16.59-.98 56.996-34.293 89.96-33.265 32.977-75.648 53.532-92.09 36.942-16.488-16.59.422-58.04 33.723-91.024zm0 0"/></g></svg>