<svg xmlns="http://www.w3.org/2000/svg" width="600" viewBox="0 0 450 450" height="600" version="1.0"><defs><clipPath id="a"><path d="M105.621 105.621h238.5v238.5h-238.5zm0 0"/></clipPath></defs><g clip-path="url(#a)"><path fill="#fff" d="m342.734 222.047-10.023-6.203c-.082-.973-.176-1.95-.281-2.922l8.613-8.027a3.482 3.482 0 0 0 1.074-2.32 3.435 3.435 0 0 0-.34-1.696 3.342 3.342 0 0 0-.472-.73 3.487 3.487 0 0 0-1.41-1.004l-11.008-4.118a88.235 88.235 0 0 0-.867-2.84l6.867-9.539a3.39 3.39 0 0 0 .629-1.617 3.382 3.382 0 0 0-.238-1.719 3.44 3.44 0 0 0-1.797-1.832 3.323 3.323 0 0 0-.836-.25l-11.606-1.882a92.803 92.803 0 0 0-1.398-2.61l4.875-10.703c.25-.543.351-1.113.3-1.71a3.317 3.317 0 0 0-.574-1.634 3.382 3.382 0 0 0-1.297-1.152 3.403 3.403 0 0 0-1.691-.383l-11.785.414a68.687 68.687 0 0 0-1.864-2.254l2.707-11.472c.07-.285.098-.574.09-.867a3.394 3.394 0 0 0-.472-1.668 3.41 3.41 0 0 0-.535-.692 3.41 3.41 0 0 0-1.497-.879 3.399 3.399 0 0 0-1.734-.043l-11.469 2.711c-.75-.629-1.507-1.25-2.27-1.863l.415-11.785a3.425 3.425 0 0 0-.855-2.43 3.325 3.325 0 0 0-.66-.578 3.438 3.438 0 0 0-1.645-.57 3.316 3.316 0 0 0-.88.047 3.54 3.54 0 0 0-.835.27l-10.703 4.882c-.867-.473-1.735-.945-2.61-1.399l-1.894-11.613a3.332 3.332 0 0 0-.254-.836 3.286 3.286 0 0 0-.453-.742 3.464 3.464 0 0 0-1.383-1.043 3.47 3.47 0 0 0-.84-.226 3.424 3.424 0 0 0-2.488.601l-9.547 6.871c-.941-.305-1.89-.59-2.84-.855l-4.121-11.012a3.215 3.215 0 0 0-.41-.766 3.424 3.424 0 0 0-1.32-1.117 3.444 3.444 0 0 0-1.696-.34 3.454 3.454 0 0 0-1.648.523c-.25.157-.473.34-.676.552l-8.027 8.625a81.233 81.233 0 0 0-2.922-.286l-6.203-10.02a3.395 3.395 0 0 0-1.25-1.198 3.407 3.407 0 0 0-1.68-.438 3.427 3.427 0 0 0-2.93 1.637l-6.203 10.02c-.976.081-1.949.175-2.922.28l-8.039-8.62a3.467 3.467 0 0 0-2.32-1.09 3.452 3.452 0 0 0-.875.058c-.29.059-.563.153-.828.282a3.22 3.22 0 0 0-.73.476 3.484 3.484 0 0 0-.996 1.422l-4.118 11.008c-.957.273-1.894.566-2.84.855l-9.539-6.867a3.493 3.493 0 0 0-1.617-.617 3.424 3.424 0 0 0-.871.016c-.29.039-.57.117-.84.23-.273.11-.523.254-.758.43a3.299 3.299 0 0 0-.625.61c-.183.23-.336.476-.453.745a3.256 3.256 0 0 0-.254.832l-1.894 11.613c-.875.454-1.746.918-2.61 1.399l-10.703-4.883a3.35 3.35 0 0 0-.836-.262 3.284 3.284 0 0 0-.875-.039 3.372 3.372 0 0 0-.855.18 3.35 3.35 0 0 0-.785.39 3.556 3.556 0 0 0-.66.575 3.396 3.396 0 0 0-.785 1.547c-.067.285-.09.578-.079.87l.414 11.786a73.657 73.657 0 0 0-2.27 1.863l-11.468-2.71a3.27 3.27 0 0 0-.871-.09 3.394 3.394 0 0 0-1.668.472c-.25.152-.48.328-.692.535-.207.211-.382.442-.535.692a3.394 3.394 0 0 0-.473 1.668c-.007.293.02.586.09.87l2.696 11.47c-.621.746-1.246 1.503-1.852 2.257l-11.785-.414a3.636 3.636 0 0 0-.871.078 3.474 3.474 0 0 0-1.547.79 3.48 3.48 0 0 0-.965 1.441 3.438 3.438 0 0 0-.18.86c-.023.292-.011.581.04.87.054.293.14.57.261.836l4.887 10.707c-.484.864-.95 1.73-1.402 2.61l-11.602 1.882c-.289.051-.566.133-.832.254-.27.118-.515.27-.746.453-.23.184-.43.391-.61.625-.175.235-.32.485-.429.758-.113.27-.191.551-.23.84-.043.29-.047.582-.012.871.031.293.097.574.203.848.105.273.242.531.41.77l6.867 9.538c-.297.942-.586 1.887-.863 2.84l-11.008 4.118a3.549 3.549 0 0 0-.77.41 3.536 3.536 0 0 0-1.117 1.32c-.125.266-.218.54-.277.828a3.592 3.592 0 0 0-.062.867 3.552 3.552 0 0 0 .523 1.653c.156.246.34.472.555.672l8.61 8.027c-.11.973-.204 1.945-.282 2.922l-10.02 6.203c-.254.152-.48.336-.687.547-.207.21-.38.445-.524.703a3.431 3.431 0 0 0-.445 1.68 3.439 3.439 0 0 0 1.656 2.933l10.02 6.203c.078.977.18 1.953.281 2.922l-8.61 8.035c-.214.2-.402.426-.558.672-.16.25-.285.512-.375.793a3.435 3.435 0 0 0-.098 1.73c.06.29.149.567.278.829a3.426 3.426 0 0 0 1.129 1.32c.238.168.496.305.773.406l11.008 4.121c.27.957.563 1.903.863 2.84l-6.867 9.535a3.594 3.594 0 0 0-.422.77 3.365 3.365 0 0 0-.203 1.73c.04.29.117.575.23.844.114.274.258.527.438.762a3.462 3.462 0 0 0 1.371 1.074c.27.117.55.195.844.242l11.601 1.883c.454.875.918 1.742 1.399 2.606l-4.883 10.707a3.52 3.52 0 0 0-.262.836 3.455 3.455 0 0 0 .141 1.73c.098.277.227.54.39.785a3.533 3.533 0 0 0 1.297 1.152 3.456 3.456 0 0 0 1.696.372l11.773-.414c.614.765 1.23 1.523 1.864 2.265l-2.7 11.485a3.409 3.409 0 0 0-.09.867c.008.293.051.582.13.863.081.285.195.55.347.805a3.392 3.392 0 0 0 1.227 1.223c.254.148.52.265.804.343.282.078.57.121.864.129.293.008.582-.023.867-.094l11.472-2.699c.746.637 1.5 1.25 2.266 1.856l-.414 11.78a3.459 3.459 0 0 0 .367 1.704c.133.262.297.504.492.723.196.222.418.414.664.578.243.164.504.293.786.386a3.367 3.367 0 0 0 1.734.133c.289-.055.566-.144.832-.27l10.707-4.874c.867.484 1.73.945 2.61 1.402l1.89 11.602a3.501 3.501 0 0 0 1.328 2.191c.234.176.488.32.758.434.273.113.55.191.844.23a3.424 3.424 0 0 0 1.718-.191c.278-.102.532-.239.774-.41l9.535-6.868c.941.305 1.89.594 2.84.867l4.121 11.008a3.426 3.426 0 0 0 1.723 1.906 3.397 3.397 0 0 0 1.703.344c.293-.02.582-.074.86-.164a3.448 3.448 0 0 0 1.465-.938l8.034-8.613c.969.11 1.945.204 2.922.293l6.203 10.02c.156.25.34.476.55.676.216.203.45.375.708.52.254.14.523.25.809.32a3.401 3.401 0 0 0 1.73 0c.285-.07.555-.18.813-.32.253-.145.488-.317.703-.52.21-.2.394-.426.55-.676l6.204-10.02c.976-.09 1.953-.183 2.921-.293l8.028 8.614a3.482 3.482 0 0 0 2.32 1.074 3.435 3.435 0 0 0 1.695-.34c.266-.125.508-.285.73-.473.227-.191.423-.402.59-.644.173-.238.31-.492.415-.766l4.117-11.008a88.236 88.236 0 0 0 2.84-.867l9.539 6.867c.238.176.496.317.77.422a3.451 3.451 0 0 0 2.574-.023c.273-.113.527-.262.761-.442a3.44 3.44 0 0 0 .625-.613c.18-.234.328-.484.446-.754.117-.273.199-.554.242-.843L274.652 321c.875-.457 1.743-.93 2.61-1.402l10.703 4.875c.27.12.547.207.836.257.289.047.578.063.87.04.294-.028.579-.086.852-.184a3.435 3.435 0 0 0 1.934-1.68 3.36 3.36 0 0 0 .383-1.687l-.41-11.781a67.588 67.588 0 0 0 2.254-1.856l11.472 2.7a3.409 3.409 0 0 0 1.727-.044 3.32 3.32 0 0 0 .805-.34 3.478 3.478 0 0 0 1.57-2.023c.082-.281.125-.57.133-.863a3.406 3.406 0 0 0-.086-.867l-2.7-11.485c.625-.742 1.25-1.5 1.852-2.265l11.785.414c.293.011.586-.012.875-.07a3.425 3.425 0 0 0 1.555-.786c.223-.195.414-.414.578-.66a3.431 3.431 0 0 0 .523-2.523 3.484 3.484 0 0 0-.27-.836l-4.874-10.704c.473-.867.95-1.734 1.402-2.609l11.602-1.883c.289-.05.566-.136.832-.254.27-.12.515-.273.746-.453a3.382 3.382 0 0 0 1.04-1.383c.112-.273.19-.55.23-.843a3.42 3.42 0 0 0-.602-2.489l-6.867-9.535.863-2.84 11.008-4.12c.277-.102.535-.235.777-.407a3.55 3.55 0 0 0 .649-.586c.187-.223.347-.469.476-.734a3.23 3.23 0 0 0 .277-.828 3.435 3.435 0 0 0-1.03-3.196l-8.61-8.035c.101-.969.2-1.945.281-2.922l10.02-6.203a3.43 3.43 0 0 0 1.21-1.25c.145-.258.258-.527.333-.812.074-.286.109-.575.109-.871a3.353 3.353 0 0 0-.441-1.68 3.43 3.43 0 0 0-1.211-1.25zm-67.066 83.121a7.105 7.105 0 0 1-1.316-.43 7.056 7.056 0 0 1-2.27-1.578 7.004 7.004 0 0 1-.86-1.086 7.205 7.205 0 0 1-1.016-2.566 7.132 7.132 0 0 1 1.134-5.297 7.28 7.28 0 0 1 .894-1.063 7.021 7.021 0 0 1 1.082-.867c.391-.254.801-.465 1.23-.64.43-.172.876-.301 1.333-.387a7.143 7.143 0 0 1 1.383-.125 7.447 7.447 0 0 1 2.726.558c.434.18.848.403 1.239.665a7.22 7.22 0 0 1 1.968 1.992 7.02 7.02 0 0 1 1.051 2.594 7.008 7.008 0 0 1-.04 2.8 7.046 7.046 0 0 1-1.112 2.567 7.039 7.039 0 0 1-2.024 1.937 6.896 6.896 0 0 1-1.257.633 6.77 6.77 0 0 1-1.356.375c-.465.078-.934.11-1.402.098a7.25 7.25 0 0 1-1.395-.18zm-3.402-23.023a6.506 6.506 0 0 0-1.262-.145 6.821 6.821 0 0 0-1.262.105 6.591 6.591 0 0 0-1.219.352 6.427 6.427 0 0 0-2.937 2.344 6.263 6.263 0 0 0-.613 1.11 6.57 6.57 0 0 0-.383 1.206l-3.555 16.602c-10.976 4.984-23.164 7.754-36.004 7.754a86.638 86.638 0 0 1-18.824-2.036 86.79 86.79 0 0 1-17.937-6.062l-3.555-16.598a6.514 6.514 0 0 0-.383-1.21 6.55 6.55 0 0 0-1.43-2.079 6.425 6.425 0 0 0-.992-.789 6.567 6.567 0 0 0-1.129-.582 6.58 6.58 0 0 0-1.219-.347 6.522 6.522 0 0 0-2.523.043l-14.652 3.14a86.507 86.507 0 0 1-7.575-8.933h71.305c.809 0 1.352-.141 1.352-.875v-25.227c0-.738-.535-.879-1.352-.879h-20.855v-15.992h22.558c2.055 0 11.008.582 13.868 12.023.898 3.516 2.859 14.97 4.21 18.633 1.34 4.11 6.797 12.317 12.618 12.317h35.53a7.218 7.218 0 0 0 1.294-.13 87.685 87.685 0 0 1-8.078 9.477zm-98.63 22.68a7.03 7.03 0 0 1-1.394.179 7.108 7.108 0 0 1-4.02-1.102 7.21 7.21 0 0 1-1.105-.867 7.233 7.233 0 0 1-.914-1.07 7.027 7.027 0 0 1-1.117-2.57 7.004 7.004 0 0 1-.156-1.399 6.999 6.999 0 0 1 .12-1.398 7.054 7.054 0 0 1 1.048-2.598 7.007 7.007 0 0 1 1.972-1.988 7.004 7.004 0 0 1 2.586-1.075 7.005 7.005 0 0 1 2.742-.003c.454.09.891.222 1.32.394.427.176.833.39 1.22.645.382.254.742.543 1.07.863.332.324.625.676.887 1.059.257.378.48.78.664 1.207a7.019 7.019 0 0 1 .574 2.68 7.025 7.025 0 0 1-.485 2.702c-.164.43-.375.84-.62 1.227-.247.39-.532.754-.848 1.086a6.758 6.758 0 0 1-1.043.902c-.375.27-.774.496-1.196.684a7.03 7.03 0 0 1-1.304.441zm-27.05-109.696a7.066 7.066 0 0 1 .688 2.734c.023.473-.004.946-.075 1.414a7.144 7.144 0 0 1-1.836 3.773c-.324.348-.68.657-1.066.93-.39.278-.8.512-1.234.704-.434.191-.883.34-1.344.445a7.129 7.129 0 0 1-1.41.164 7.11 7.11 0 0 1-1.41-.113 7.167 7.167 0 0 1-1.364-.395 7.107 7.107 0 0 1-1.254-.66 6.913 6.913 0 0 1-1.101-.89 7.34 7.34 0 0 1-.903-1.094 7.124 7.124 0 0 1-.664-1.254 6.972 6.972 0 0 1-.527-2.664 7.024 7.024 0 0 1 .512-2.672 7.123 7.123 0 0 1 2.515-3.168 7.288 7.288 0 0 1 1.192-.672 7.173 7.173 0 0 1 2.648-.606 7.071 7.071 0 0 1 3.914 1.027 7.042 7.042 0 0 1 2.719 2.996zm-8.309 19.707 15.266-6.785c.39-.176.758-.383 1.105-.63.348-.241.665-.519.957-.827a6.437 6.437 0 0 0 1.778-4.621 6.519 6.519 0 0 0-.555-2.465l-3.144-7.11h12.367v55.735h-24.946a87.18 87.18 0 0 1-3.02-16.516 87.355 87.355 0 0 1 .2-16.789zm66.993-5.406v-16.426h29.449c1.523 0 10.734 1.762 10.734 8.652 0 5.719-7.07 7.774-12.879 7.774zm107.02 14.785c0 2.176-.083 4.34-.243 6.476h-8.953c-.895 0-1.258.582-1.258 1.47v4.109c0 9.68-5.461 11.785-10.246 12.316-4.55.516-9.598-1.902-10.219-4.691-2.691-15.11-7.164-18.34-14.23-23.91 8.77-5.57 17.894-13.79 17.894-24.786 0-11.875-8.148-19.36-13.7-23.035-7.78-5.137-16.401-6.164-18.73-6.164H160.02a87.3 87.3 0 0 1 35.074-23.773 87.178 87.178 0 0 1 13.742-3.782l10.918 11.453a6.9 6.9 0 0 0 .957.829 6.473 6.473 0 0 0 6.05.738 6.138 6.138 0 0 0 1.13-.574c.359-.227.691-.489.996-.782l12.207-11.683a87.486 87.486 0 0 1 26.562 9.633 87.127 87.127 0 0 1 7.989 5.062 87.06 87.06 0 0 1 14.105 12.555 87.263 87.263 0 0 1 11.078 15.293l-8.36 18.883c-.171.386-.304.789-.398 1.203-.09.414-.144.832-.152 1.257-.012.426.02.848.094 1.266.07.418.183.824.336 1.219.152.398.34.777.566 1.133.227.36.488.695.777 1.004.293.308.614.582.957.828.348.246.715.457 1.102.629l16.094 7.152c.281 2.86.426 5.738.426 8.672zm-92.528-95.496a7.047 7.047 0 0 1 2.336-1.485 7.347 7.347 0 0 1 1.34-.375 7.204 7.204 0 0 1 2.769.067 7.094 7.094 0 0 1 5.441 5.703 7.164 7.164 0 0 1-.066 2.766 6.798 6.798 0 0 1-.437 1.32c-.188.43-.415.832-.684 1.21-.27.384-.57.735-.91 1.055-.34.293-.707.555-1.098.782-.39.222-.8.41-1.226.558-.426.145-.864.25-1.313.317a6.977 6.977 0 0 1-2.68-.133 7.02 7.02 0 0 1-1.273-.442 7.073 7.073 0 0 1-2.188-1.554 7.336 7.336 0 0 1-.832-1.063 7.12 7.12 0 0 1-1-2.488 7.056 7.056 0 0 1-.129-1.344c0-.449.043-.898.125-1.34a7.103 7.103 0 0 1 1.824-3.555zm82.957 66.75a7.092 7.092 0 0 1 2.684-3.117 7.113 7.113 0 0 1 3.968-1.098 7.13 7.13 0 0 1 2.695.61c.426.187.832.417 1.215.683.38.27.73.574 1.055.91a7.098 7.098 0 0 1 1.86 3.68 7.203 7.203 0 0 1-.067 2.77 7.098 7.098 0 0 1-.434 1.323 7.113 7.113 0 0 1-.687 1.211 7.09 7.09 0 0 1-.906 1.059 7.264 7.264 0 0 1-2.34 1.484c-.438.168-.883.29-1.344.371a7.186 7.186 0 0 1-2.77-.066 7.11 7.11 0 0 1-4.445-3.129 6.76 6.76 0 0 1-.625-1.246 7.26 7.26 0 0 1-.375-1.34 7.204 7.204 0 0 1-.101-1.39c.011-.465.07-.926.171-1.383.102-.453.247-.895.438-1.32zm0 0"/></g></svg>