<svg xmlns="http://www.w3.org/2000/svg" width="600" viewBox="0 0 450 450" height="600" version="1.0"><defs><clipPath id="a"><path d="M80.29 80.29h289.5V308H80.29zm0 0"/></clipPath><clipPath id="b"><path d="M80.29 80.29h289.5V358H80.29zm0 0"/></clipPath><clipPath id="c"><path d="M80.29 129h289.5v240.79H80.29zm0 0"/></clipPath><clipPath id="d"><path d="M80.29 175h289.5v194.79H80.29zm0 0"/></clipPath></defs><path fill="none" d="M139.152 153.523v145.82M310.496 153.523v145.82" stroke="#fff" stroke-width="8.684999999999999" stroke-miterlimit="10"/><g clip-path="url(#a)"><path fill="none" d="M310.496 151.793c0 .543-.035 1.09-.105 1.633-.067.547-.172 1.09-.309 1.633a14.217 14.217 0 0 1-.516 1.625 15.75 15.75 0 0 1-.718 1.609 18.42 18.42 0 0 1-.918 1.598 22.229 22.229 0 0 1-1.125 1.578c-.407.52-.844 1.039-1.317 1.55a32.55 32.55 0 0 1-3.219 3.023c-.597.493-1.23.981-1.89 1.462-.66.48-1.352.957-2.07 1.426a60.188 60.188 0 0 1-4.672 2.718 75.955 75.955 0 0 1-5.332 2.528c-.946.406-1.91.8-2.903 1.183-.992.387-2.004.766-3.043 1.13-1.039.366-2.101.722-3.183 1.07-1.086.343-2.192.68-3.317 1.007a145.23 145.23 0 0 1-3.437.942c-1.168.3-2.352.594-3.555.875a168.45 168.45 0 0 1-7.414 1.543c-1.265.23-2.547.453-3.844.66a182.394 182.394 0 0 1-7.914 1.102c-1.343.16-2.691.304-4.054.437a197.56 197.56 0 0 1-8.243.637 211.854 211.854 0 0 1-12.57.363c-1.402 0-2.805-.016-4.207-.04a210.007 210.007 0 0 1-8.363-.324 204.933 204.933 0 0 1-8.246-.636c-1.36-.133-2.711-.277-4.055-.437a182.394 182.394 0 0 1-7.914-1.102c-1.297-.207-2.578-.43-3.844-.66a168.45 168.45 0 0 1-7.414-1.543 163.222 163.222 0 0 1-3.555-.875 145.23 145.23 0 0 1-3.437-.942c-1.125-.328-2.23-.664-3.313-1.007a112.707 112.707 0 0 1-3.187-1.07 91.733 91.733 0 0 1-3.043-1.13 79.894 79.894 0 0 1-2.898-1.183 75.955 75.955 0 0 1-5.336-2.527 58.619 58.619 0 0 1-4.668-2.72 46.864 46.864 0 0 1-2.075-1.425c-.66-.48-1.293-.969-1.89-1.461a32.55 32.55 0 0 1-3.219-3.023 24.777 24.777 0 0 1-1.316-1.551c-.41-.524-.782-1.051-1.121-1.578a17.51 17.51 0 0 1-1.641-3.207 14.218 14.218 0 0 1-.516-1.625 13.197 13.197 0 0 1-.308-1.633 12.731 12.731 0 0 1 0-3.27c.066-.547.172-1.09.308-1.633.137-.543.309-1.082.516-1.625.203-.539.445-1.074.719-1.609.273-.535.578-1.066.922-1.598.34-.527.71-1.054 1.12-1.578.407-.52.844-1.039 1.317-1.55a32.55 32.55 0 0 1 3.219-3.023c.597-.493 1.23-.981 1.89-1.462.66-.48 1.352-.957 2.075-1.422.718-.468 1.468-.93 2.246-1.383a63.608 63.608 0 0 1 2.422-1.34 75.955 75.955 0 0 1 5.336-2.527c.941-.402 1.906-.8 2.898-1.183.992-.387 2.004-.762 3.043-1.13a112.707 112.707 0 0 1 6.5-2.073c1.125-.329 2.273-.641 3.437-.946 1.168-.3 2.352-.594 3.555-.875 1.203-.277 2.422-.547 3.656-.804 1.239-.258 2.489-.504 3.758-.735 1.266-.234 2.547-.457 3.844-.664a182.398 182.398 0 0 1 7.914-1.102c1.344-.16 2.695-.304 4.055-.437a204.933 204.933 0 0 1 8.246-.637c1.387-.082 2.777-.148 4.172-.203 1.394-.05 2.793-.094 4.191-.117 1.402-.027 2.805-.043 4.207-.043 1.399 0 2.8.016 4.203.043 1.399.023 2.797.066 4.192.117 1.394.055 2.785.121 4.175.203a204.543 204.543 0 0 1 8.243.637c1.363.133 2.71.277 4.054.438a182.398 182.398 0 0 1 11.758 1.765c1.27.23 2.52.477 3.758.735 1.234.257 2.457.527 3.656.804 1.203.281 2.387.574 3.555.875 1.164.305 2.312.617 3.437.946 1.125.324 2.23.66 3.317 1.003 1.082.348 2.144.704 3.183 1.07a101.437 101.437 0 0 1 5.946 2.313 75.955 75.955 0 0 1 5.332 2.527c.836.438 1.64.887 2.422 1.34.777.454 1.527.915 2.25 1.383.718.465 1.41.942 2.07 1.422.66.48 1.293.969 1.89 1.461a32.55 32.55 0 0 1 3.22 3.024c.472.511.91 1.03 1.316 1.55.41.524.781 1.051 1.125 1.578.34.532.644 1.063.918 1.598.273.535.515 1.07.718 1.61.207.542.38 1.081.516 1.624.137.543.242 1.086.309 1.633.07.543.105 1.09.105 1.637zm0 0" stroke="#fff" stroke-width="8.684999999999999" stroke-miterlimit="10"/></g><g clip-path="url(#b)"><path fill="none" d="M310.496 201.434c0 4.226-2.016 8.273-5.726 11.992a30.461 30.461 0 0 1-2.895 2.59c-3.152 2.511-7.09 4.855-11.691 6.964-4.313 1.981-9.211 3.77-14.579 5.297a140.48 140.48 0 0 1-9.257 2.32c-1.739.38-3.516.731-5.32 1.063-4.645.84-9.528 1.528-14.583 2.043-4.71.473-9.586.805-14.578.961a220.212 220.212 0 0 1-14.578-.023c-4.996-.157-9.867-.5-14.582-.985-5.066-.531-9.941-1.226-14.578-2.09-1.625-.3-3.23-.62-4.8-.96-3.415-.731-6.68-1.56-9.778-2.47-5.387-1.566-10.285-3.374-14.578-5.382-4.391-2.055-8.153-4.3-11.184-6.734-1.262-1.008-2.406-2.043-3.402-3.11-3.375-3.57-5.211-7.433-5.211-11.469" stroke="#fff" stroke-width="8.684999999999999" stroke-miterlimit="10"/></g><g clip-path="url(#c)"><path fill="none" d="M310.488 251.953c0 4.227-2.015 8.274-5.726 11.992a30.981 30.981 0 0 1-2.895 2.586c-3.148 2.512-7.086 4.86-11.687 6.965-4.317 1.98-9.215 3.77-14.582 5.3-2.953.849-6.04 1.626-9.258 2.321-1.735.375-3.516.73-5.32 1.059-4.645.84-9.524 1.527-14.579 2.043-4.714.476-9.59.804-14.582.96-2.32.079-4.664.114-7.03.114-2.544 0-5.056-.047-7.548-.137a203.07 203.07 0 0 1-14.578-.984c-5.066-.531-9.941-1.227-14.578-2.09-1.629-.3-3.23-.617-4.8-.96a132.327 132.327 0 0 1-9.782-2.466c-5.383-1.57-10.281-3.375-14.578-5.386-4.387-2.055-8.152-4.301-11.18-6.73-1.262-1.009-2.41-2.048-3.406-3.11-3.375-3.575-5.211-7.438-5.211-11.473" stroke="#fff" stroke-width="8.684999999999999" stroke-miterlimit="10"/></g><g clip-path="url(#d)"><path fill="none" d="M310.93 298.29c0 4.226-2.016 8.273-5.727 11.991a29.91 29.91 0 0 1-2.894 2.586c-3.149 2.516-7.086 4.86-11.692 6.969-4.312 1.98-9.21 3.77-14.578 5.297-2.953.851-6.039 1.625-9.258 2.32-1.738.38-3.515.73-5.32 1.059-4.645.84-9.527 1.531-14.582 2.047-4.711.472-9.586.804-14.578.96a220.214 220.214 0 0 1-14.578-.023c-4.996-.156-9.868-.5-14.578-.984-5.067-.535-9.942-1.227-14.582-2.09-1.625-.3-3.231-.621-4.797-.961a134.282 134.282 0 0 1-9.782-2.469c-5.382-1.566-10.28-3.375-14.578-5.383-4.39-2.054-8.152-4.3-11.18-6.734-1.265-1.008-2.41-2.043-3.406-3.11-3.375-3.574-5.21-7.433-5.21-11.468" stroke="#fff" stroke-width="8.684999999999999" stroke-miterlimit="10"/></g></svg>