<svg xmlns="http://www.w3.org/2000/svg" width="600" viewBox="0 0 450 450" height="600" version="1.0"><defs><clipPath id="a"><path d="M108.613 155h232.5v140h-232.5zm0 0"/></clipPath></defs><g clip-path="url(#a)"><path fill="#fff" d="M225.008 155.168c-31.035 0-50.434 15.516-58.192 46.55 11.637-15.515 25.215-21.335 40.735-17.456 8.855 2.21 15.176 8.633 22.187 15.75 11.418 11.582 24.617 24.984 53.461 24.984 31.035 0 50.434-15.516 58.192-46.55-11.637 15.515-25.215 21.335-40.735 17.456-8.855-2.21-15.176-8.632-22.191-15.75-11.402-11.582-24.606-24.984-53.457-24.984zm-58.192 69.828c-31.039 0-50.433 15.52-58.195 46.555 11.64-15.516 25.219-21.336 40.734-17.457 8.856 2.21 15.18 8.633 22.192 15.75 11.418 11.582 24.617 24.984 53.46 24.984 31.036 0 50.434-15.52 58.192-46.555-11.637 15.52-25.215 21.34-40.734 17.457-8.856-2.21-15.18-8.628-22.192-15.75-11.406-11.578-24.605-24.984-53.457-24.984zm0 0"/></g></svg>