<svg xmlns="http://www.w3.org/2000/svg" width="600" viewBox="0 0 450 450" height="600" version="1.0"><defs><clipPath id="a"><path d="M108.836 108.836h232.5v232.5h-232.5zm0 0"/></clipPath></defs><g clip-path="url(#a)"><path fill="#fff" d="M119.727 108.836a10.87 10.87 0 0 0-10.891 10.89V330.27a10.87 10.87 0 0 0 10.89 10.89H330.27a10.87 10.87 0 0 0 10.89-10.89V119.727a10.87 10.87 0 0 0-10.89-10.891zm168.078 94.383c5.922 0 11.172.36 15.75 1.074a61.495 61.495 0 0 1 12.64 3.293v23.793a38.304 38.304 0 0 0-6.222-3.496 49.253 49.253 0 0 0-6.942-2.516 52.694 52.694 0 0 0-13.804-1.937c-2.903 0-5.547.273-7.93.832a20.19 20.19 0 0 0-6.027 2.343c-1.649 1.008-2.907 2.22-3.805 3.622a8.403 8.403 0 0 0-1.356 4.742c0 1.898.512 3.613 1.508 5.12 1.008 1.513 2.442 2.942 4.29 4.298 1.847 1.355 4.093 2.672 6.738 3.968 2.64 1.31 5.632 2.653 8.964 4.028 4.547 1.91 8.633 3.941 12.254 6.082 3.621 2.148 6.727 4.578 9.32 7.289a28.18 28.18 0 0 1 5.946 9.262c1.375 3.476 2.07 7.511 2.07 12.129 0 6.359-1.207 11.714-3.61 16.03-2.382 4.325-5.648 7.825-9.796 10.505a42.048 42.048 0 0 1-14.395 5.77c-5.476 1.16-11.257 1.741-17.328 1.741a95.559 95.559 0 0 1-17.808-1.59 53.392 53.392 0 0 1-14.637-4.769v-25.46a48.579 48.579 0 0 0 14.64 8.577 48.674 48.674 0 0 0 8.212 2.254c2.804.508 5.632.77 8.48.785 3.227 0 6.043-.289 8.441-.87 2.41-.583 4.414-1.395 6.032-2.423 1.605-1.043 2.808-2.261 3.61-3.675a9.871 9.871 0 0 0 1.167-5.375 9.853 9.853 0 0 0-1.883-5.168 20.372 20.372 0 0 0-5.199-4.84 53.654 53.654 0 0 0-7.813-4.297 265.65 265.65 0 0 0-9.746-4.223c-8.886-3.707-15.507-8.246-19.875-13.601-4.355-5.352-6.543-11.829-6.543-19.407 0-5.945 1.192-11.047 3.575-15.316 2.379-4.266 5.613-7.781 9.718-10.54a43.127 43.127 0 0 1 14.23-6.089 72.685 72.685 0 0 1 17.134-1.945zm-146.297 1.82h92.57v20.965h-33.223v93.375h-26.3v-93.375h-33.047zm0 0"/></g></svg>