<svg xmlns="http://www.w3.org/2000/svg" width="600" viewBox="0 0 450 450" height="600" version="1.0"><path fill="#fff" d="M450.563 93.938c-16.63 7.382-34.454 12.34-53.192 14.59 19.125-11.462 33.82-29.602 40.711-51.188a185.83 185.83 0 0 1-58.781 22.43c-16.875-18-40.922-29.215-67.535-29.215-51.118 0-92.567 41.414-92.567 92.53 0 7.243.844 14.31 2.426 21.095-76.922-3.868-145.09-40.711-190.758-96.715-7.98 13.71-12.515 29.601-12.515 46.547 0 32.097 16.312 60.433 41.168 77.062-15.188-.492-29.461-4.676-41.942-11.601v1.16c0 44.86 31.922 82.23 74.215 90.773-7.734 2.11-15.926 3.235-24.363 3.235-5.977 0-11.778-.563-17.438-1.688 11.813 36.738 45.985 63.563 86.45 64.3C104.8 362.075 64.897 376.84 21.515 376.84c-7.489 0-14.836-.422-22.043-1.3 40.922 26.296 89.578 41.589 141.855 41.589 170.227 0 263.32-141.012 263.32-263.285 0-4.008-.105-8.051-.246-11.989 18.07-13.042 33.75-29.355 46.16-47.917zm0 0"/></svg>